<svg xmlns="http://www.w3.org/2000/svg" viewBox="0 0 118 72.75" width="118" height="72.75">
  <path fill="none" stroke="currentColor" stroke-width="2" d="M55.61 2.649c3.409-2.371 9.555-2.175 12.539.4q5.89 5.083 15.551 3.083c4.9-1.013 10.057 1.032 10.531 4.173q.936 6.2 10.941 7.415c5.07.616 7.864 3.962 5.7 6.826q-4.269 5.654 3.4 9.759c3.886 2.08 3.563 5.83-.658 7.651q-8.329 3.594-5.053 9.489c1.661 2.987-1.69 6.136-6.838 6.426q-10.159.571-12.152 6.676c-1.009 3.094-6.492 4.8-11.188 3.478q-9.266-2.6-15.994 2.074c-3.409 2.371-9.555 2.175-12.539-.4q-5.89-5.083-15.551-3.083c-4.9 1.013-10.056-1.032-10.531-4.173q-.936-6.2-10.941-7.415c-5.07-.616-7.864-3.962-5.7-6.826q4.269-5.654-3.4-9.759c-3.886-2.08-3.564-5.83.657-7.651q8.33-3.594 5.053-9.489c-1.661-2.987 1.691-6.136 6.839-6.425q10.159-.571 12.152-6.676c1.01-3.094 6.493-4.8 11.188-3.478q9.266 2.605 15.994-2.075Z"/>
  <path fill="currentColor" fill-rule="evenodd" d="m37.482 29.107 1.848-15.012h-2.7l-2.124 17.28h9.24l.276-2.268h-6.54Zm16.776-9.972a.714.714 0 0 0-.414.138.935.935 0 0 0-.306.354l-3.42 6.948q-.132.288-.258.57t-.246.57q-.024-.276-.066-.564t-.1-.564l-1.728-6.948a.751.751 0 0 0-.192-.354.59.59 0 0 0-.444-.15h-2.138l3.12 11.388-2.688 4.92h1.908a.915.915 0 0 0 .852-.564l8.172-15.744h-2.052Zm6.984.84a.862.862 0 0 0-.222-.654.9.9 0 0 0-.642-.21h-1.3l-1.472 12.264h2.52l.648-5.46a7.432 7.432 0 0 1 1.842-3.786 2.409 2.409 0 0 1 2.67-.39l.468-2.472a2.442 2.442 0 0 0-1.266-.2 2.758 2.758 0 0 0-1.224.468 5.006 5.006 0 0 0-1.14 1.092 9.073 9.073 0 0 0-1.014 1.668Zm13.1 4.836a12.511 12.511 0 0 1-.684 1.824 8.439 8.439 0 0 1-.858 1.458 4.231 4.231 0 0 1-.978.972 1.846 1.846 0 0 1-1.056.354 1.408 1.408 0 0 1-1.242-.654 3.689 3.689 0 0 1-.438-2.022 6.663 6.663 0 0 1 .384-2.262 6.33 6.33 0 0 1 1.05-1.89 5.092 5.092 0 0 1 1.572-1.3 4.08 4.08 0 0 1 1.938-.48q.2 0 .4.012t.4.036Zm-.48 5.688a1.046 1.046 0 0 0 .18.624.775.775 0 0 0 .672.252h1.356l1.464-11.856a6.884 6.884 0 0 0-1.548-.438 10.142 10.142 0 0 0-1.6-.126 7.333 7.333 0 0 0-2.13.306 7.7 7.7 0 0 0-1.89.858 7.808 7.808 0 0 0-1.584 1.32 8.545 8.545 0 0 0-1.212 1.686 8.682 8.682 0 0 0-.78 1.956 8.246 8.246 0 0 0-.276 2.13 6.474 6.474 0 0 0 .246 1.878 4.132 4.132 0 0 0 .678 1.362 2.768 2.768 0 0 0 1.032.828 3.093 3.093 0 0 0 1.308.276 3.523 3.523 0 0 0 1.224-.216 4.362 4.362 0 0 0 1.116-.612 6.207 6.207 0 0 0 1-.954 9.56 9.56 0 0 0 .894-1.254Zm-48.11 20.74.684-5.6h3.144a3.114 3.114 0 0 1 2.13.612 2.12 2.12 0 0 1 .678 1.656 4.2 4.2 0 0 1-.21 1.368 2.737 2.737 0 0 1-.642 1.05 2.9 2.9 0 0 1-1.092.678 4.525 4.525 0 0 1-1.548.24h-3.144Zm4.26-13.02a3.366 3.366 0 0 1 2.1.54 2.039 2.039 0 0 1 .684 1.7 3.155 3.155 0 0 1-.912 2.424 3.8 3.8 0 0 1-2.688.852h-2.52l.672-5.52h2.664Zm-5.1-2.124-2.124 17.28h5.892a8.047 8.047 0 0 0 2.67-.414 5.856 5.856 0 0 0 2-1.152 5 5 0 0 0 1.26-1.746 5.481 5.481 0 0 0 .438-2.208 3.181 3.181 0 0 0-.738-2.16 4.143 4.143 0 0 0-2.238-1.212 5.712 5.712 0 0 0 1.536-.744 4.579 4.579 0 0 0 1.074-1.038 4.234 4.234 0 0 0 .636-1.266 4.882 4.882 0 0 0 .21-1.44 4.146 4.146 0 0 0-.3-1.608 3.057 3.057 0 0 0-.942-1.23 4.565 4.565 0 0 0-1.64-.782 9.1 9.1 0 0 0-2.394-.276h-5.34ZM45.72 46.811a12.511 12.511 0 0 1-.684 1.824 8.452 8.452 0 0 1-.858 1.458 4.237 4.237 0 0 1-.978.972 1.846 1.846 0 0 1-1.056.354 1.408 1.408 0 0 1-1.244-.654 3.689 3.689 0 0 1-.438-2.022 6.663 6.663 0 0 1 .384-2.262 6.33 6.33 0 0 1 1.05-1.89 5.09 5.09 0 0 1 1.572-1.3 4.079 4.079 0 0 1 1.938-.48q.2 0 .4.012t.4.036Zm-.48 5.688a1.046 1.046 0 0 0 .18.624.775.775 0 0 0 .672.252h1.356l1.464-11.856a6.884 6.884 0 0 0-1.548-.438 10.144 10.144 0 0 0-1.6-.126 7.332 7.332 0 0 0-2.13.306 7.7 7.7 0 0 0-1.89.858 7.808 7.808 0 0 0-1.584 1.32 8.541 8.541 0 0 0-1.212 1.686 8.682 8.682 0 0 0-.78 1.956 8.246 8.246 0 0 0-.276 2.13 6.474 6.474 0 0 0 .246 1.878 4.132 4.132 0 0 0 .678 1.362 2.768 2.768 0 0 0 1.032.828 3.092 3.092 0 0 0 1.308.276 3.523 3.523 0 0 0 1.224-.216 4.368 4.368 0 0 0 1.116-.612 6.22 6.22 0 0 0 1-.954 9.588 9.588 0 0 0 .894-1.254Zm8.5-16.884-2.188 17.76H54.1l.7-5.712h.4a1.162 1.162 0 0 1 .492.078.729.729 0 0 1 .288.354l2.724 4.8a.736.736 0 0 0 .312.378 1.043 1.043 0 0 0 .492.1h2.22L58.4 47.387a3.912 3.912 0 0 0-.282-.48 1.9 1.9 0 0 0-.354-.384 3.224 3.224 0 0 0 .828-.732l4.368-4.656h-2.288a1.039 1.039 0 0 0-.522.12 1.445 1.445 0 0 0-.4.36l-3.624 3.924a1.209 1.209 0 0 1-.354.294.987.987 0 0 1-.426.078h-.338l1.26-10.3h-2.532Zm17.148 7.29a1.531 1.531 0 0 1 .486.282 1.006 1.006 0 0 1 .27.384 1.128 1.128 0 0 1 .084.408 1.632 1.632 0 0 1-.18.75 1.757 1.757 0 0 1-.72.666 6.463 6.463 0 0 1-1.548.576 22.29 22.29 0 0 1-2.664.48 6.651 6.651 0 0 1 .51-1.464 4.811 4.811 0 0 1 .78-1.158 3.406 3.406 0 0 1 1.02-.762 2.813 2.813 0 0 1 1.242-.276 2.033 2.033 0 0 1 .716.114Zm2.22 7.41a.628.628 0 0 0-.468-.24 1 1 0 0 0-.618.228q-.294.228-.684.5a5.022 5.022 0 0 1-.942.5 3.631 3.631 0 0 1-1.38.228 2.458 2.458 0 0 1-1.98-.774 3.461 3.461 0 0 1-.66-2.3v-.164a.9.9 0 0 1 .012-.15 25.184 25.184 0 0 0 3.8-.636 8.541 8.541 0 0 0 2.334-.936 3.115 3.115 0 0 0 1.182-1.212 3.3 3.3 0 0 0 .33-1.476 2.485 2.485 0 0 0-.234-1.008 2.848 2.848 0 0 0-.69-.942 3.616 3.616 0 0 0-1.158-.7 4.537 4.537 0 0 0-1.644-.27 5.647 5.647 0 0 0-1.842.294 5.974 5.974 0 0 0-1.572.81 6.276 6.276 0 0 0-1.272 1.23 7.953 7.953 0 0 0-.948 1.554 8.52 8.52 0 0 0-.594 1.77 8.79 8.79 0 0 0-.2 1.89 6.3 6.3 0 0 0 .324 2.082 4.447 4.447 0 0 0 .93 1.584 4.174 4.174 0 0 0 1.458 1.014 4.889 4.889 0 0 0 1.92.36 7.226 7.226 0 0 0 1.488-.14 5.723 5.723 0 0 0 1.308-.444 6.923 6.923 0 0 0 1.224-.762 11.882 11.882 0 0 0 1.224-1.1Zm7.188-8.34a.862.862 0 0 0-.222-.654.9.9 0 0 0-.642-.21h-1.3l-1.476 12.264h2.52l.648-5.46a7.433 7.433 0 0 1 1.842-3.786 2.41 2.41 0 0 1 2.67-.39l.468-2.472a2.442 2.442 0 0 0-1.266-.2 2.758 2.758 0 0 0-1.224.468 5.006 5.006 0 0 0-1.14 1.092 9.079 9.079 0 0 0-1.014 1.668Zm15.432-.84a.714.714 0 0 0-.414.138.935.935 0 0 0-.306.354l-3.42 6.948q-.132.288-.258.57t-.246.57q-.024-.276-.066-.564t-.1-.564l-1.728-6.948a.751.751 0 0 0-.192-.354.59.59 0 0 0-.444-.15h-2.136l3.12 11.388-2.688 4.92h1.908a.915.915 0 0 0 .842-.568l8.172-15.744H95.72Z"/>
</svg>