<svg xmlns="http://www.w3.org/2000/svg" width="118.062" height="118.062" viewBox="0 0 118.062 118.062">
  <path fill="none" stroke="currentColor" d="M193.245,72.871c1.988,3.309,3.906,2.654,6.234,6.792,5.465-4.814-10.47-13.652-10.47-13.652" transform="translate(-127.469 -24.469)"/>
  <path fill="none" stroke="currentColor" d="M174.477,69.913c2.436,8.676,14.455,19.211,14.455,19.211S191.781,79.68,181.979,74" transform="translate(-127.469 -24.469)"/>
  <path fill="none" stroke="currentColor" d="M164.877,80.676s1.046,9.363,13.034,14.971c0.126-6.547-6.382-12.011-6.382-12.011" transform="translate(-127.469 -24.469)"/>
  <path fill="none" stroke="currentColor" d="M183.108,28.2a8,8,0,0,1,12.546.657q5.894,8.335,15.559,5.056a8,8,0,0,1,10.537,6.842q0.936,10.165,10.947,12.158a8,8,0,0,1,5.7,11.194q-4.27,9.271,3.4,16a8,8,0,0,1-.658,12.546q-8.334,5.893-5.055,15.559a8,8,0,0,1-6.843,10.537q-10.164.936-12.158,10.947a8,8,0,0,1-11.193,5.7q-9.272-4.27-16,3.4a8,8,0,0,1-12.546-.658q-5.894-8.334-15.559-5.055a8,8,0,0,1-10.537-6.843q-0.936-10.164-10.947-12.158a8,8,0,0,1-5.7-11.193q4.27-9.271-3.4-16a8,8,0,0,1,.658-12.546q8.334-5.893,5.055-15.56a8,8,0,0,1,6.843-10.536q10.164-.936,12.158-10.947a8,8,0,0,1,11.193-5.7Q176.377,35.871,183.108,28.2Z" transform="translate(-127.469 -24.469)"/>
  <path fill="none" stroke="currentColor"  d="M191.107,60.815c17.5,2.075,26.251,15.451,23.013,27.457-3.045,11.293-15.9,19.609-29.835,19.595-14.2-.015-27.881-8.9-27.836-22.653C156.5,70.34,172.727,58.636,191.107,60.815ZM167.276,86.321" transform="translate(-127.469 -24.469)"/>
</svg>