<svg version="1.1"
     id="svg1"
     width="288.228"
     height="259.68268"
     viewBox="0 0 288.228 259.68268"
     xmlns:xlink="http://www.w3.org/1999/xlink"
     xmlns="http://www.w3.org/2000/svg"
     xmlns:svg="http://www.w3.org/2000/svg">
    <g>
        <path d="m 0,0 c -0.789,0.419 -1.397,-0.676 -0.688,-1.18 18.585,-13.237 38.606,-30.211 42.045,-54.034 -15.823,12.193 -33.608,21.515 -49.291,33.915 -13.153,10.401 -29,22.057 -34.733,38.453 -0.348,0.992 -2.112,0.908 -1.955,-0.264 2.014,-15.09 18.209,-28.262 29.294,-37.093 18.275,-14.558 38.018,-26.292 57.637,-38.899 0.752,-0.483 1.967,0.138 1.879,1.079 C 41.855,-33.223 21.184,-11.288 0,0"
              transform="matrix(1.3333333,0,0,-1.3333333,86.828667,103.62013)"/>
        <path d="m 0,0 c -0.932,0.497 -1.618,-0.776 -0.807,-1.38 11.415,-8.521 21.996,-16.328 29.562,-28.706 6.294,-10.298 9.017,-22.103 9.69,-34.016 -2.289,6.097 -4.694,11.81 -8.527,17.513 -4.784,7.12 -11.041,13.308 -17.901,18.42 -9.6,7.156 -18.571,14.97 -27.79,22.597 -8.834,7.31 -19.212,13.224 -27.417,21.194 -0.669,0.649 -1.533,-0.298 -0.994,-0.993 6.108,-7.859 14.79,-13.445 22.436,-19.683 8.449,-6.894 16.406,-14.375 25.084,-20.993 7.526,-5.74 14.813,-11.157 20.879,-18.502 5.954,-7.208 11.165,-16.737 14.439,-25.474 0.353,-0.942 1.839,-0.859 1.825,0.247 C 40.128,-40.678 26.294,-13.995 0,0"
              transform="matrix(1.3333333,0,0,-1.3333333,136.85013,60.204133)"/>
        <path d="m 0,0 c -1.168,0.503 -2.205,-1.118 -1.024,-1.751 17.525,-9.404 40.283,-23.047 38.378,-44.894 -5.847,12.762 -21.325,22.802 -32.635,28.694 -0.547,0.284 -0.951,-0.456 -0.473,-0.809 6.241,-4.599 12.293,-9.495 17.995,-14.75 5.852,-5.394 12.518,-12.111 13.956,-20.24 0.294,-1.665 2.741,-1.466 3.159,0 C 47.042,-26.817 21.508,-9.263 0,0"
              transform="matrix(1.3333333,0,0,-1.3333333,189.1568,29.9912)"/>
        <path d="m 0,0 h -0.832 c -0.081,0 -0.081,-0.124 0,-0.124 H 0 C 0.081,-0.124 0.081,0 0,0"
              transform="matrix(1.3333333,0,0,-1.3333333,155.17893,2.6666667e-4)"/>
        <path d="m 0,0 c -7.409,8.702 -16.083,14.642 -26.853,18.437 -7.645,2.694 -16.356,3.767 -24.332,5.174 -7.643,1.347 -15.223,1.59 -22.967,1.209 -1.187,-0.059 -1.175,-1.751 0,-1.834 9.569,-0.671 19.142,-2.339 28.552,-4.181 9.266,-1.814 18.4,-3.486 26.856,-7.856 12.643,-6.533 22.965,-20.225 29.392,-32.565 3.002,-5.763 5.068,-11.8 6.328,-17.968 -4.29,6.506 -10.477,12.221 -15.47,16.787 -0.84,0.768 -2.416,-0.29 -1.654,-1.277 3.646,-4.725 7.208,-9.466 10.612,-14.368 4.385,-6.31 5.058,-12.813 7.542,-19.751 0.083,-0.233 0.218,-0.434 0.375,-0.616 -0.133,-2.697 -0.39,-5.394 -0.779,-8.079 -2.774,9.169 -8.99,17.902 -13.417,25.576 -0.697,1.207 -2.47,0.145 -1.853,-1.083 3.162,-6.289 6.48,-12.431 8.916,-19.054 2.32,-6.306 2.426,-12.558 3.314,-19.088 -0.831,-2.756 -1.784,-5.481 -2.852,-8.157 -0.721,11.269 -5.806,23.024 -10.224,32.281 -0.41,0.858 -1.842,0.25 -1.533,-0.646 2.299,-6.668 4.81,-13.185 6.401,-20.076 2.047,-8.874 0.244,-17.789 -1.96,-26.355 -1.367,-2.285 -2.81,-4.514 -4.335,-6.664 -25.767,-36.364 -76.259,-55.521 -120.103,-46.45 -6.818,10.596 -8.604,22.348 -9.154,34.843 -0.041,0.929 -1.409,0.932 -1.444,0 -0.447,-12.012 0.04,-23.131 5.278,-33.596 -1.887,0.496 -3.763,1.028 -5.617,1.634 -0.017,0.02 -0.026,0.041 -0.043,0.061 -12.84,14.65 -20.736,30.624 -22.372,50.212 -0.07,0.841 -1.34,0.867 -1.326,0 0.271,-17.658 5.116,-33.783 15.889,-47.32 -5.777,2.469 -11.333,5.523 -16.581,9.197 0.245,0.702 0.187,1.521 -0.401,2.24 -11.195,13.64 -11.264,33.291 -10.84,50.034 0.024,0.941 -1.372,0.916 -1.444,0 -1.169,-14.981 -2.602,-31.672 4.106,-45.383 -5.712,5.318 -10.402,11.385 -14.127,17.962 0.189,0.38 0.267,0.825 0.158,1.309 -1.717,7.619 -2.773,14.053 -1.65,21.875 0.798,5.556 2.242,11.087 1.765,16.723 -0.034,0.403 -0.547,0.467 -0.689,0.094 -2.808,-7.351 -5.78,-16.58 -6.055,-25.371 -6.868,20.624 -6.118,44.081 0.895,64.747 6.651,19.601 19.492,35.415 36.524,46.995 17.449,11.863 37.207,16.853 58.038,17.984 0.459,0.025 0.613,0.756 0.113,0.843 -27.665,4.801 -57.963,-11.348 -76.907,-30.459 -19.283,-19.456 -28.074,-48.394 -27.021,-75.353 1.053,-26.93 13.562,-52.585 35.565,-68.421 22.303,-16.054 51.361,-21.053 78.211,-17.092 48.615,7.169 95.622,42.907 101.713,94.01 C 25.624,-42.958 16.58,-19.472 0,0"
              transform="matrix(1.3333333,0,0,-1.3333333,257.37747,40.833067)"/>
        <path d="m 0,0 c -24.98,7.104 -39.571,28.477 -59.06,43.902 -0.581,0.459 -1.413,-0.334 -0.829,-0.829 9.914,-8.397 18.718,-17.99 28.454,-26.585 C -22.628,8.712 -12.185,0.799 -0.282,-1.024 0.378,-1.126 0.675,-0.192 0,0"
              transform="matrix(1.3333333,0,0,-1.3333333,108.2544,138.902)"/>
        <path d="m 0,0 c -10.364,10.979 -20.295,23.386 -32.922,31.854 -0.286,0.192 -0.638,-0.259 -0.369,-0.478 C -21.407,21.681 -12.434,9.092 -0.817,-0.817 -0.255,-1.297 0.518,-0.548 0,0"
              transform="matrix(1.3333333,0,0,-1.3333333,156.6112,91.928667)"/>
        <path d="m 0,0 c 0.058,0.139 -0.18,0.238 -0.243,0.102 -4.775,-10.27 -10.112,-20.843 -5.497,-32.143 0.137,-0.336 0.677,-0.209 0.557,0.153 C -8.959,-20.417 -4.385,-10.489 0,0"
              transform="matrix(1.3333333,0,0,-1.3333333,62.903467,23.1872)"/>
        <path d="m 0,0 c -6.196,-6.392 -9.04,-14.886 -10.12,-23.565 -0.049,-0.395 0.612,-0.478 0.691,-0.093 1.762,8.63 4.565,16.217 9.944,23.261 C 0.745,-0.097 0.254,0.262 0,0"
              transform="matrix(1.3333333,0,0,-1.3333333,79.3124,13.053733)"/>
        <path d="m 0,0 c -7.202,-2.839 -11.509,-10.869 -12.925,-18.124 -0.08,-0.411 0.532,-0.589 0.633,-0.174 1.741,7.167 5.619,14.502 12.46,17.898 C 0.389,-0.29 0.231,0.091 0,0"
              transform="matrix(1.3333333,0,0,-1.3333333,110.65547,4.1924)"/>
        <path d="m 0,0 c -5.208,-4.14 -8.147,-10.353 -8.815,-16.893 -0.043,-0.419 0.677,-0.517 0.736,-0.1 0.92,6.521 3.916,11.912 8.532,16.54 C 0.752,-0.153 0.316,0.251 0,0"
              transform="matrix(1.3333333,0,0,-1.3333333,131.76413,3.2829333)"/>
        <path d="m 0,0 c -4.312,-4.208 -8.126,-8.854 -9.36,-14.892 -0.092,-0.451 0.562,-0.639 0.694,-0.191 1.672,5.71 5.254,10.21 9.307,14.442 C 1.045,-0.219 0.419,0.409 0,0"
              transform="matrix(1.3333333,0,0,-1.3333333,94.305867,9.3798667)"/>
        <path d="m 0,0 c -2.249,5.464 -3.471,10.763 -3.102,16.699 0.292,4.697 1.985,9.196 2.212,13.883 0.005,0.103 -0.136,0.108 -0.169,0.023 C -4.794,20.65 -5.67,9.329 -0.586,-0.247 -0.418,-0.562 0.139,-0.338 0,0"
              transform="matrix(1.3333333,0,0,-1.3333333,50.7004,75.471733)"/>
        <path d="m 0,0 c -0.159,0.314 -0.699,0.091 -0.571,-0.241 3.491,-9.122 1.899,-19.592 -0.383,-28.797 -1.293,-5.218 -3.171,-10.296 -5.429,-15.168 -1.807,-3.899 -4.52,-7.182 -6.474,-10.942 -0.369,-0.709 0.48,-1.312 1.067,-0.823 3.48,2.892 5.586,8.067 7.417,12.09 2.3,5.055 3.98,10.38 5.276,15.773 C 3.051,-19.169 4.295,-8.49 0,0"
              transform="matrix(1.3333333,0,0,-1.3333333,253.31493,138.486)"/>
        <path d="m 0,0 c -2.759,-7.402 -5.962,-15.482 -5.966,-23.491 -10e-4,-0.597 0.935,-0.751 1.059,-0.143 1.624,7.961 3.735,15.528 6.052,23.319 C 1.367,0.43 0.263,0.705 0,0"
              transform="matrix(1.3333333,0,0,-1.3333333,10.413333,126.93)"/>
        <path d="m 0,0 c -2.238,5.396 -4.715,10.607 -6.437,16.209 -2.031,6.615 -2.687,13.425 -3.14,20.296 -0.028,0.44 -0.668,0.445 -0.687,0 C -10.805,23.964 -7.351,10.418 -1.114,-0.47 -0.779,-1.054 0.27,-0.65 0,0"
              transform="matrix(1.3333333,0,0,-1.3333333,86.6268,250.48013)"/>
        <path d="m 0,0 c -12.271,12.482 -18.785,30.216 -16.038,47.722 0.038,0.242 -0.321,0.354 -0.377,0.103 C -20.161,31.084 -13.67,10.692 -0.453,-0.453 -0.142,-0.716 0.294,-0.299 0,0"
              transform="matrix(1.3333333,0,0,-1.3333333,66.5904,244.1716)"/>
        <path d="m 0,0 c -7.864,6.543 -11.636,15.239 -13.406,25.142 -0.033,0.189 -0.36,0.146 -0.337,-0.046 C -12.584,15.131 -8.602,5.619 -0.407,-0.528 -0.102,-0.757 0.292,-0.243 0,0"
              transform="matrix(1.3333333,0,0,-1.3333333,119.05,256.6012)"/>
        <path d="m 0,0 c -10.052,4.694 -14.672,13.665 -19.306,23.199 -0.092,0.19 -0.418,0.054 -0.342,-0.145 C -16.11,13.761 -10.607,2.42 -0.205,-0.486 0.079,-0.565 0.278,-0.13 0,0"
              transform="matrix(1.3333333,0,0,-1.3333333,135.80067,255.7236)"/>
    </g>
</svg>