<svg xmlns="http://www.w3.org/2000/svg" width="498.991" height="266.556" viewBox="0 0 2179 1164">
  <path fill="currentColor" d="M454.171,0q-1.914,17.224-3.827,34.451c-11.915,59.672-8.771,96.262,43.376,117.389l2.551-1.276C521.889,75.437,486.169,52.072,454.171,0Zm84.2,90.594c-8.566,16.246-34.256,69.249-29.342,91.869,3.337,15.362,13.533,26.306,20.412,38.279l2.551-1.276C553.719,159.29,565.277,157.838,538.371,90.594ZM0,119.941l6.379,47.211,3.827,54.866c8.745,36.3,43.857,67.351,86.752,68.9v-2.552C136.444,211.831,26.816,154.717,0,119.941Zm423.553,6.38c-2.579,7.5,1.821,19.794,3.827,26.8,13.473,47.02,42.819,59.877,89.3,74.006C510.5,161.808,453.463,165.535,423.553,126.321Zm151.815,31.9q-3.189,15.948-6.379,31.9c-11.751,36.82-33.542,61.355-6.378,100.8,5.214,7.572,9.25,16.295,17.86,20.416C602.388,245.187,615.1,220.087,575.368,158.22ZM131.4,204.155c-4.325,5.484-.458,28.814-2.551,39.555-11.5,58.993-13.242,89.341,33.17,118.664C178.393,276.308,175.506,262.057,131.4,204.155Zm310.01,8.931c-3.36,10.038,4.323,25.156,7.655,33.175,20.7,49.816,54.393,64.616,114.818,75.282C550.3,244.153,477.522,259.991,441.413,213.086Zm176.055,34.451q-2.55,19.776-5.1,39.555c-14.517,54.19-17.561,80.836,25.516,112.285C657.358,328.691,655.614,299.216,617.468,247.537Zm-421,25.52q1.276,22.965,2.552,45.935c-11.252,75.322-5,107.937,51.03,137.8C266.708,352.591,249.191,329.829,196.467,273.057ZM3.827,283.264c-1.932,8.631,6.422,19.507,10.206,26.8,23.67,45.589,61.425,65.052,132.68,63.8v-1.276C108.081,293.131,56.34,329.221,3.827,283.264ZM489.892,316.44c-1.824,7.3,3.717,15.345,6.379,21.691,20.247,48.261,57.626,72.742,127.576,71.454-12.224-25.229-25.973-47.717-52.306-58.694C542.221,338.668,509.553,337.665,489.892,316.44ZM668.5,330.475V361.1c-7.347,44.457-13.737,78.733,17.86,103.354,6.392,4.98,11.65,12.345,19.137,12.759C715.97,388.6,711.356,385.883,668.5,330.475ZM274.289,366.2q3.827,19.139,7.654,38.279-0.638,33.173-1.276,66.35c6.575,36.449,33.92,61.314,66.34,71.455v-2.552q0.637-20.413,1.276-40.831C348.189,418.486,312.817,405.448,274.289,366.2ZM51.03,380.238c-0.984,10.381,10.831,24.649,16.585,33.175,37.361,55.359,76.938,64.017,165.849,59.97l-2.551-5.1c-16.2-38.532-58.566-64.87-103.337-75.282C99.5,386.468,67.88,396.749,51.03,380.238Zm676.154,26.8q1.275,19.138,2.551,38.279c-0.038,58.529,4.023,90.171,49.755,104.629C786.372,462.589,768.963,450.863,727.184,407.033Zm-177.331,6.38c-6.883,5.253,16.009,34.282,20.412,39.555,27.655,33.115,60.586,40.137,121.2,38.279q-0.639-1.914-1.276-3.828c-14.522-17.82-24.305-36.417-47.2-45.935C613.1,429.063,570.661,434.437,549.853,413.413ZM363.592,451.692c-3.021,3.917,9.381,35.617,11.482,47.211q1.912,26.792,3.827,53.59c8.5,35.192,39.244,56.448,73.994,65.075C453.959,514.456,421.348,495.086,363.592,451.692ZM794.8,477.211l6.379,29.348c11.795,66.156-3.348,88.1,59.961,107.181C862.513,528.088,840.019,514.758,794.8,477.211Zm-651.914,12.76c-4.62,3.023,26.528,41.989,33.17,47.211,32.246,25.35,104.111,51.326,156.919,22.967l-2.552-2.552c-17.861-36.659-63.178-56.337-110.991-63.8C190.683,489.313,163.483,505.476,142.885,489.971Zm475.859,12.76c-4.034,6.216,11.647,21.735,16.585,28.071,27.083,34.752,75.271,46.5,132.679,33.175-13.576-19.4-31.3-37.978-57.409-44.659C678.726,511.163,640.914,519.295,618.744,502.731ZM460.55,525.7h-3.828c19.164,38.626,21.41,111.115,56.134,135.252,8.3,5.77,49.22,27.124,52.306,11.484-15.137-53.593-21.233-95.208-59.961-123.769Zm409.519,14.036c-2.355,3.428,3.634,11.782,5.1,19.139q-0.638,14.034-1.276,28.071c-3.392,26.11,6.988,41.761,15.31,56.143-44.926-3.127-66.427,17.822-107.164,14.035V658.4l17.86,19.14L829.245,695.4c40.434,16.746,78.606-1.508,110.991-11.483q50.388,21.688,100.784,43.383c66.92,26.069,141.97,42.535,221.98,53.59v1.276c-45.48,6.945-93.42,13.978-142.88,21.692l-63.79-2.552c-54.32-8.459-105.107-6.6-153.091-16.588-20.54-4.276-89.93-10.991-98.234-22.967C764.512,695.566,767.186,652.1,668.5,639.259c16.187,24.166,20.523,52.326,33.17,82.938,6.216,15.047,17.533,24.089,26.791,35.727-40.677,3.181-59.409,27.813-89.3,40.831l-38.273,8.931,2.552,1.276c10.013,10.6,25.757,16.17,40.824,21.692,70.828,25.958,115.281-9.944,156.919-39.555C924.7,807.756,1066.42,849.956,1213.25,823c58.4-10.723,114.06-18.5,167.12-34.451,116.61-35.051,222.22-76.409,349.56-102.077,39.76-8.014,96.66-10.956,139.06-3.828,37.91,6.372,70.8,5.4,103.34,15.311,106.8,32.538,179.14,103.078,205.39,215.639H2179c-13.24-142.163-106.19-216.75-227.09-252.642-31.16-9.251-62.42-8.149-98.23-14.035-41.16-6.766-91.59-5.236-131.4,2.552-114.43,22.382-210.16,55.2-311.29,90.593-23.18,8.113-113.5,42.143-137.78,38.279-76.17-12.117-148.55-35.173-211.78-61.246-32.42-13.371-91.283-30.985-113.539-53.591C945.373,586.326,916.666,572.067,870.069,539.734Zm-535.82,43.382c-36.2.319-60.538,13.237-91.854,5.1,48.447,71.568,107.3,76.919,199.018,48.487-15.6-19.248-42.954-39.053-68.891-47.211Zm364.868,1.276H695.29l2.551,3.828c17.382,40.519,102.584,75.467,153.092,39.555-12.726-16.66-33.191-32.213-57.41-37C762.283,584.594,724.134,599.112,699.117,584.392ZM563.886,588.22h-3.827l1.276,3.828c57.379,55.245.426,123.268,123.749,139.081-17.752-54.242-30.852-98.238-75.27-125.045Zm-90.579,71.454L421,662.226c-21.75,5.481-39.7,17.681-67.615,11.484,34.661,47.073,102.828,68.993,170.952,40.831,11.3-4.671,23.96-7.336,31.894-15.312H553.68C533.279,675.649,504.388,673.739,473.307,659.674Zm130.128,61.247c-61.764-.655-77.672,26.41-128.852,26.795,40.686,53.377,156.281,52.458,201.57,3.828C657.111,732.915,630.084,733.044,603.435,720.921Zm-442.689,7.656h-2.552c17.833,47.386,45.73,117.577,121.2,99.525v-6.38C252.264,733.97,219.327,770.113,160.746,728.577Zm1699.314,2.552c-227.04-4.266-374.78,77.373-556.23,123.768-89.37,22.85-253.2,45.338-364.87,26.8-51.348-8.526-104.269-16.57-153.091-21.692v1.276l126.3,30.623c92.871,20.472,227.231,25.223,325.321,6.38v1.276l-2.55,1.276-61.24,24.243C1108.96,950.3,1027.95,976,946.615,979.942c-28.19-38.32-71.492-69.726-137.782-54.867v1.276c26.883,8.912,30.117,40.322,49.754,56.143l28.067,15.311H884.1c-21.618,16.705-31.958,30.545-48.478,52.315-7.65,10.08-19.967,13.34-29.343,21.69,84.836,10,112.028-15.27,145.437-71.45,81.722-4.561,191.422-49.4,256.432-77.837L1263,894.452q21.06-3.189,42.1-6.38l112.27-26.795c84.56-25.205,166.11-52.339,255.15-74.006,43.01-10.465,87.8-12.027,135.23-19.139l76.55,2.551c104.48,16.838,162.29,45.964,206.67,121.217,27.15,46.039,37.98,119.08,7.66,172.26-24.8,43.49-64.29,76.93-118.65,90.59-21.31,5.35-59.56-.27-80.37,7.66,35.28,1.62,74.47,4.08,104.61-5.11,76.09-23.18,166.83-115.75,132.68-228.4-7.12-23.5-17.29-47.964-29.34-67.626-35.86-58.509-90.33-95.757-163.3-117.389Q1902.17,737.508,1860.06,731.129ZM280.667,752.82c-2.489,1.965,7.017,27.468,8.931,35.727,9.572,41.322,15.726,67.585,58.685,74.006v-8.932C329.1,781.908,331.733,791.118,280.667,752.82ZM350.834,786h-2.551c22.846,61.036,20.211,107.751,93.13,122.493v-5.1C417.489,823.022,416.128,824.445,350.834,786Zm88.028,48.487h-5.1c34.06,51.489,23.2,104.356,105.888,111.009v-1.276C514.626,869.83,506.14,866.085,438.862,834.482ZM294.7,847.241c-32.028.1-59.5,5.528-89.3,1.276,23.976,32.933,89.557,59.911,135.23,26.8C328.694,860.067,312.942,856.714,294.7,847.241Zm239.843,25.52H524.338c31.854,44.587,36.249,99.389,116.094,98.249-14.976-37.264-34.078-70.724-68.891-88.042ZM375.074,898.28c-37.733,1.089-65.09,15.324-104.613,10.208,44.28,60.055,104.736,40.854,164.574,16.587l-2.552-1.276C417.828,906.958,398.038,907.875,375.074,898.28Zm253.876,1.276-11.482,1.276,2.552,3.828c53.371,26.853,14.936,87.414,122.473,81.662v-1.276c-15.924-32.678-39.128-64.169-73.994-77.834ZM747.6,916.144l-35.721,1.276,1.275,2.551c60.365,27.86,25.689,82.8,132.68,70.179-7.277-24.308-40.028-53.911-62.513-63.8ZM487.341,942.939c-48.4-.509-66.969,21.291-117.37,21.691l1.275,2.552,35.722,21.692c45.154,18.616,102.531-.7,126.3-26.8C521.37,950.624,503.781,950.429,487.341,942.939Zm107.164,31.9c-45.077-.567-73.76,25.292-119.922,34.452v1.28h2.552c46.638,40.94,130.727,15.8,159.47-22.972Zm117.37,20.415c-63.066-.913-75.219,39.427-128.852,45.937q0.637,1.275,1.276,2.55l44.651,14.04c52.991,9.11,93.558-27.56,112.267-54.87h-2.551Q725.271,999.085,711.875,995.253Zm116.094,7.657c-71.784-1.04-78.982,47.55-135.231,58.69v1.28c79.283,17.03,118.73.31,154.367-56.14Q837.538,1004.82,827.969,1002.91Z"/>
</svg>