<svg version="1.1"
     width="289.87201"
     height="239.65199"
     viewBox="0 0 289.87201 239.65199"
     xmlns="http://www.w3.org/2000/svg">
    <g>
        <path fill="currentColor" d="m 0,0 c 10.282,3.25 22.64,-4.927 22.903,-15.972 0.138,-5.776 -3.042,-10.877 -6.498,-15.233 -2.926,-3.69 -7.38,-5.571 -10.479,-8.811 -6.338,4.477 -14.498,6.325 -20.833,10.87 -0.372,0.266 -0.732,0.569 -1.094,0.863 9.961,6.894 14.771,17.238 15.59,28.271 C -0.288,-0.042 -0.155,-0.049 0,0 m 7.041,-45.054 c 8.689,-8.579 -4.322,-14.681 -11.684,-13.866 -15.053,1.666 -30.281,13.058 -39.251,24.683 -5.627,7.298 -7.094,15.737 -6.4,24.772 0.411,5.35 2.066,10.519 4.76,15.137 2.027,3.48 5.454,5.541 7.887,8.632 2.298,-4.105 3.841,-8.859 5.486,-13.562 0.146,-0.419 0.498,-0.526 0.834,-0.451 0.058,-10.184 4.557,-21.211 11.671,-28.774 -0.064,-0.729 0.506,-1.472 1.253,-1.274 1.025,-0.989 2.088,-1.921 3.205,-2.755 6.876,-5.139 16.005,-6.386 22.239,-12.542 m -51.777,4.567 c -9.091,-6.936 -20.059,-10.551 -31.439,-8.037 -9.453,2.087 -21.571,12.878 -10.848,21.737 8.804,7.274 25.3,-3.346 32.697,6.665 0.475,-2.939 1.258,-5.805 2.359,-8.491 1.726,-4.208 4.292,-8.155 7.42,-11.78 -0.064,-0.029 -0.128,-0.047 -0.189,-0.094 m 120.3,12.408 C 76.845,-18.1 74.742,-9.374 68.815,-1.327 62.306,7.508 53.674,14.966 44.736,21.242 31.269,30.694 11.508,39.826 -4.346,30.729 -7.508,28.914 -5.103,23.84 -1.86,25.602 18.916,36.89 45.418,15.501 58.848,1.201 c 7.73,-8.23 11.846,-15.972 10.978,-27.523 -0.983,-13.092 -6.72,-25.911 -12.857,-37.322 -5.465,-10.159 -12.183,-20.132 -21.182,-27.471 -13.291,-10.842 -31.243,-15.195 -48.056,-16.243 -34.603,-2.156 -68.508,11.653 -95.262,32.89 -12.695,10.075 -22.134,23.147 -26.858,38.673 -3.784,12.436 -3.582,25.804 -2.095,38.584 1.82,15.655 6.516,30.298 17.336,42.082 9.916,10.798 23.189,18.968 38.114,19.132 12.473,0.139 24.787,-4.388 35.992,-9.456 11.333,-5.128 21.398,-11.553 29.245,-21.342 6.841,-8.534 11.084,-19.316 11.195,-30.284 0.118,-11.591 -5.818,-21.192 -13.46,-29.354 -7.226,7.273 -12.029,19.826 -12.097,29.228 -0.004,0.442 -0.421,0.637 -0.738,0.537 -1.75,10.613 -5.702,21.125 -16.171,25.916 -9.718,4.448 -20.632,4.609 -29.554,-1.75 -14.529,-10.357 -20.438,-35.281 -4.621,-47.374 1.367,-1.046 2.649,0.901 1.827,2.101 -8.829,12.906 -7.384,28.825 4.709,39.283 7.033,6.082 15.677,5.855 24.145,3.449 5.625,-1.598 9.247,-4.872 11.903,-8.974 -7.97,-0.473 -12.398,-10.402 -14.427,-17.026 -1.543,-5.042 -2.089,-10.576 -1.621,-15.983 -6.133,-7.629 -17.469,-3.451 -25.809,-4.006 -8.141,-0.54 -14.41,-5.81 -14.773,-14.341 -0.387,-9.077 10.756,-15.543 18.372,-16.938 12.116,-2.221 24.378,2.33 33.289,10.563 0.064,0.06 0.097,0.125 0.139,0.189 4.997,-5.462 11.27,-10.127 17.872,-13.734 -3.887,-0.524 -7.748,-1.417 -11.816,-1.247 -6.767,0.283 -13.459,2.462 -19.252,5.912 -1.143,0.681 -2.111,-0.878 -1.115,-1.695 5.369,-4.407 11.644,-6.533 18.48,-7.411 5.523,-0.709 13.287,-0.772 18.362,2.093 3.86,-1.783 7.757,-3.197 11.512,-4.182 5.852,-1.538 12.733,-1.289 17.739,2.516 4.856,3.691 6.287,10.182 2.144,15.185 -0.58,0.702 -1.209,1.337 -1.856,1.944 4.759,1.282 9.258,6.962 11.891,10.282 4.197,5.292 6.637,11.788 5.783,18.554 C 24.783,-1.686 10.26,7.479 -0.315,1.73 c 0.348,9.552 -2.211,19.508 -6.967,28.113 -12.529,22.673 -40.268,35.462 -64.924,39.375 -31.759,5.037 -56.371,-20.021 -64.924,-48.575 -8.262,-27.579 -5.231,-60.804 13.21,-83.603 11.33,-14.008 26.717,-23.257 42.665,-31.13 13.41,-6.62 27.036,-11.541 41.825,-14.022 27.93,-4.689 60.78,-0.485 83.079,18.339 17.125,14.455 29.1,39.768 31.915,61.694"
              transform="matrix(1.3333333,0,0,-1.3333333,188.63933,93.154933)"/>
        <path fill="currentColor" d="M 0,0 C -2.639,3.006 -6.216,-0.133 -3.578,-3.14 -2.258,-4.643 1.32,-1.502 0,0"
              transform="matrix(1.3333333,0,0,-1.3333333,50.9688,82.0416)"/>
        <path fill="currentColor" d="M 0,0 C -1.979,2.254 -5.703,-1.015 -3.724,-3.269 -1.085,-6.275 2.639,-3.006 0,0"
              transform="matrix(1.3333333,0,0,-1.3333333,38.555333,92.937467)"/>
        <path fill="currentColor" d="M 0,0 C -1.319,1.503 -4.574,-1.354 -3.255,-2.856 -0.616,-5.863 2.639,-3.006 0,0"
              transform="matrix(1.3333333,0,0,-1.3333333,47.584667,124.04293)"/>
        <path fill="currentColor" d="m 0,0 c -0.099,0.501 -0.326,0.999 -0.709,1.351 -0.766,0.703 -1.896,0.991 -2.781,0.35 -0.449,-0.168 -0.826,-0.496 -1.074,-0.91 -0.359,-0.6 -0.149,-1.424 0.369,-1.816 0.08,-0.157 0.178,-0.301 0.303,-0.419 0.396,-0.375 0.753,-0.692 1.291,-0.839 C -1.175,-2.672 0.301,-1.54 0,0"
              transform="matrix(1.3333333,0,0,-1.3333333,64.527333,157.68627)"/>
        <path fill="currentColor" d="M 0,0 C -0.222,0.875 -0.787,1.558 -1.292,2.287 -1.942,3.224 -3.456,3.166 -4.238,2.479 -5.02,1.793 -5.274,0.299 -4.431,-0.467 -3.772,-1.062 -3.169,-1.711 -2.329,-2.045 -1.108,-2.53 0.323,-1.275 0,0"
              transform="matrix(1.3333333,0,0,-1.3333333,64.361333,172.99987)"/>
        <path fill="currentColor" d="M 0,0 C -2.639,3.006 -6.216,-0.135 -3.578,-3.14 -2.258,-4.644 1.319,-1.503 0,0"
              transform="matrix(1.3333333,0,0,-1.3333333,115.1172,185.40493)"/>
        <path fill="currentColor" d="M 0,0 C -2.638,3.006 -7.037,-0.855 -4.397,-3.861 -2.419,-6.116 1.98,-2.255 0,0"
              transform="matrix(1.3333333,0,0,-1.3333333,94.539733,192.8216)"/>
        <path fill="currentColor" d="M 0,0 C -2.639,3.007 -6.949,-0.777 -4.31,-3.783 -1.672,-6.79 2.639,-3.006 0,0"
              transform="matrix(1.3333333,0,0,-1.3333333,127.13147,201.47133)"/>
        <path fill="currentColor" d="M 0,0 C -1.979,2.254 -5.526,-0.859 -3.547,-3.114 -1.568,-5.369 1.98,-2.254 0,0"
              transform="matrix(1.3333333,0,0,-1.3333333,164.3236,207.85533)"/>
        <path fill="currentColor" d="m 0,0 c 0.148,0.447 0.275,1.248 0.035,1.706 -0.624,1.196 -1.664,2.065 -3.104,1.789 -1.707,-0.33 -2.668,-2.255 -1.909,-3.818 0.641,-1.32 2.277,-1.89 3.599,-1.249 C -0.732,-1.258 -0.228,-0.684 0,0"
              transform="matrix(1.3333333,0,0,-1.3333333,178.1016,195.29293)"/>
        <path fill="currentColor" d="M 0,0 C -2.639,3.006 -6.423,-0.314 -3.784,-3.32 -1.805,-5.575 1.978,-2.255 0,0"
              transform="matrix(1.3333333,0,0,-1.3333333,210.29493,197.664)"/>
        <path fill="currentColor" d="M 0,0 C -2.639,3.007 -6.773,-0.623 -4.135,-3.629 -1.496,-6.635 2.639,-3.006 0,0"
              transform="matrix(1.3333333,0,0,-1.3333333,228.09053,183.81773)"/>
        <path fill="currentColor" d="M 0,0 C -2.638,3.007 -6.656,-0.52 -4.017,-3.525 -2.697,-5.028 1.32,-1.503 0,0"
              transform="matrix(1.3333333,0,0,-1.3333333,231.49933,154.21347)"/>
        <path fill="currentColor" d="M 0,0 C -2.638,3.007 -6.421,-0.314 -3.782,-3.32 -1.803,-5.575 1.979,-2.255 0,0"
              transform="matrix(1.3333333,0,0,-1.3333333,191.11,214.50387)"/>
        <path fill="currentColor" d="M 0,0 C -1.979,2.255 -4.999,-0.396 -3.02,-2.651 -1.701,-4.154 1.319,-1.503 0,0"
              transform="matrix(1.3333333,0,0,-1.3333333,151.47587,187.1992)"/>
        <path fill="currentColor" d="M 0,0 C -1.319,1.503 -4.311,-1.122 -2.991,-2.625 -1.012,-4.88 1.979,-2.254 0,0"
              transform="matrix(1.3333333,0,0,-1.3333333,37.855467,150.32427)"/>
        <path fill="currentColor" d="m 0,0 c -8.3,-8.353 -13.954,-19.007 -14.946,-30.876 -0.109,-1.296 2.039,-1.588 2.271,-0.308 2.054,11.349 5.77,21.674 13.095,30.764 C 0.655,-0.128 0.276,0.278 0,0"
              transform="matrix(1.3333333,0,0,-1.3333333,21.569067,86.021467)"/>
        <path fill="currentColor" d="m 0,0 c -7.13,-8.504 -10.95,-18.712 -10.532,-29.864 0.052,-1.376 2.042,-1.362 2.125,0 0.664,11.003 3.25,19.844 9.585,28.955 C 1.663,-0.211 0.546,0.652 0,0"
              transform="matrix(1.3333333,0,0,-1.3333333,23.808533,109.59427)"/>
        <path fill="currentColor" d="m 0,0 c -4.649,-7.55 -8.541,-20.402 -2.106,-28.059 0.441,-0.524 1.435,0.035 1.175,0.684 -3.763,9.403 -2.279,17.822 1.713,26.918 C 1.012,0.066 0.314,0.51 0,0"
              transform="matrix(1.3333333,0,0,-1.3333333,28.4388,135.77467)"/>
        <path fill="currentColor" d="m 0,0 c -6.076,8.08 -5.849,17.339 -6.121,26.971 -0.018,0.645 -0.978,0.644 -1,0 C -7.456,17.155 -7.564,7.168 -1.129,-0.87 -0.621,-1.506 0.49,-0.65 0,0"
              transform="matrix(1.3333333,0,0,-1.3333333,51.121067,198.70693)"/>
        <path fill="currentColor" d="m 0,0 c -8.026,-2.853 -15.139,-9.255 -18.228,-17.268 -0.402,-1.042 1.313,-1.754 1.799,-0.758 1.742,3.57 3.629,6.757 6.341,9.7 2.951,3.203 6.692,5.5 10.245,7.955 C 0.335,-0.248 0.23,0.082 0,0"
              transform="matrix(1.3333333,0,0,-1.3333333,27.11,66.4844)"/>
        <path fill="currentColor" d="m 0,0 c -7.927,-1.773 -19.207,-6.707 -21.601,-15.326 -0.312,-1.121 1.384,-1.893 1.913,-0.806 4.107,8.436 12.067,11.483 19.905,15.618 C 0.509,-0.359 0.301,0.068 0,0"
              transform="matrix(1.3333333,0,0,-1.3333333,37.749333,43.273333)"/>
        <path fill="currentColor" d="m 0,0 c -2.269,3.15 -3.711,6.313 -4.788,10.048 -1.099,3.814 0.099,7.629 -0.754,11.278 -0.155,0.659 -1.082,0.914 -1.541,0.407 C -9.605,18.951 -8.61,13.809 -7.888,10.457 -6.964,6.17 -4.423,1.711 -0.684,-0.684 -0.277,-0.945 0.297,-0.412 0,0"
              transform="matrix(1.3333333,0,0,-1.3333333,139.75787,108.1868)"/>
        <path fill="currentColor" d="m 0,0 c -2.61,1.476 -5.104,2.804 -7.442,4.729 -2.337,1.923 -4.006,4.26 -5.799,6.657 -0.984,1.316 -2.923,0.222 -2.213,-1.293 2.385,-5.09 9.262,-11.169 15.107,-11.374 C 0.341,-1.306 0.586,-0.332 0,0"
              transform="matrix(1.3333333,0,0,-1.3333333,138.75653,130.8424)"/>
        <path fill="currentColor" d="m 0,0 c -5.237,-0.632 -9.985,-0.034 -14.939,1.738 -1.577,0.565 -2.677,-2.023 -1.144,-2.713 5.022,-2.261 11.577,-3.032 16.264,0.305 C 0.437,-0.487 0.392,0.047 0,0"
              transform="matrix(1.3333333,0,0,-1.3333333,156.96027,147.15493)"/>
        <path fill="currentColor" d="m 0,0 c -6.846,-0.927 -13.238,-2.327 -20.056,-0.354 -2.059,0.596 -2.954,-2.703 -0.88,-3.194 7.182,-1.705 14.741,-0.699 21.43,2.377 C 1.217,-0.839 0.649,0.087 0,0"
              transform="matrix(1.3333333,0,0,-1.3333333,178.0664,158.36587)"/>
        <path fill="currentColor" d="m 0,0 c -0.544,0.538 -1.525,-0.171 -1.08,-0.833 8.459,-12.59 6.871,-25.44 5.297,-39.653 -0.166,-1.501 2.144,-1.696 2.547,-0.345 C 10.576,-28.068 9.971,-9.865 0,0"
              transform="matrix(1.3333333,0,0,-1.3333333,252.72,137.20827)"/>
        <path fill="currentColor" d="m 0,0 c -1.802,6.227 -5.326,11.931 -10.079,16.314 -0.675,0.623 -1.57,-0.305 -0.994,-0.994 3.613,-4.316 6.108,-9.309 7.896,-14.626 0.914,-2.717 1.403,-5.561 1.656,-8.408 0.254,-2.861 -0.496,-5.651 -0.195,-8.469 0.114,-1.074 1.504,-1.625 2.125,-0.576 C 3.182,-12.072 1.418,-4.899 0,0"
              transform="matrix(1.3333333,0,0,-1.3333333,274.17253,142.0572)"/>
        <path fill="currentColor" d="m 0,0 c -0.507,0.101 -0.901,-0.646 -0.374,-0.886 12.733,-5.781 21.246,-15.791 21.151,-30.248 -0.009,-1.45 2.018,-1.357 2.188,0 C 24.79,-16.53 14.301,-2.862 0,0"
              transform="matrix(1.3333333,0,0,-1.3333333,253.13213,96.344933)"/>
        <path fill="currentColor" d="m 0,0 c 0.339,0.768 -0.205,1.493 -1.041,1.354 -3.139,-0.522 -4.746,-4.093 -5.123,-6.937 -0.403,-3.046 0.511,-5.866 2.425,-8.229 0.303,-0.373 0.778,0.103 0.614,0.474 -1.061,2.404 -0.889,4.894 -0.248,7.377 C -2.778,-3.658 -0.93,-2.105 0,0"
              transform="matrix(1.3333333,0,0,-1.3333333,86.021467,125.1432)"/>
        <path fill="currentColor" d="m 0,0 c -3.154,-1.677 -4.192,-6.26 -3.617,-9.54 0.268,-1.531 0.712,-3.412 1.754,-4.629 1.114,-1.302 1.789,-1.346 3.334,-1.426 0.211,-0.01 0.309,0.316 0.111,0.407 -1.636,0.761 -2.086,4.595 -2.134,6.062 -0.086,2.656 0.306,4.924 2.483,6.623 C 3.414,-1.346 1.527,0.812 0,0"
              transform="matrix(1.3333333,0,0,-1.3333333,98.11,123.578)"/>
        <path fill="currentColor" d="m 0,0 c -2.965,6.137 -2.4,12.373 -2.891,18.95 -0.042,0.556 -0.812,0.552 -0.859,0 C -4.322,12.292 -4.544,5.287 -1.309,-0.766 -0.844,-1.635 0.42,-0.871 0,0"
              transform="matrix(1.3333333,0,0,-1.3333333,38.721333,188.01573)"/>
        <path fill="currentColor" d="m 0,0 c -3.289,-7.692 -5.001,-16.387 -4.326,-24.773 0.053,-0.657 0.956,-0.652 1.016,0 0.775,8.463 1.146,16.394 3.696,24.611 C 0.455,0.062 0.095,0.222 0,0"
              transform="matrix(1.3333333,0,0,-1.3333333,21.606133,128.828)"/>
        <path fill="currentColor" d="M 0,0 V -0.094 Z"
              transform="matrix(1.3333333,0,0,-1.3333333,52.516267,181.35293)"/>
        <path fill="currentColor" d="m 0,0 c -5.215,6.344 -8.208,13.802 -9.846,21.811 -0.128,0.625 -1.062,0.356 -0.949,-0.262 C -9.373,13.758 -6.64,4.896 -0.641,-0.641 -0.204,-1.044 0.366,-0.445 0,0"
              transform="matrix(1.3333333,0,0,-1.3333333,65.832,209.4324)"/>
        <path fill="currentColor" d="M 0,0 C -5.03,5.482 -6.915,11.914 -8.052,19.106 -8.096,19.387 -8.556,19.318 -8.543,19.04 -8.222,11.912 -6.411,4.077 -0.586,-0.586 -0.176,-0.914 0.369,-0.402 0,0"
              transform="matrix(1.3333333,0,0,-1.3333333,80.906267,214.802)"/>
        <path fill="currentColor" d="m 0,0 c -3.105,3.794 -3.74,8.214 -3.984,12.974 -0.025,0.481 -0.733,0.485 -0.75,0 C -4.898,8.252 -4.322,2.722 -0.718,-0.719 -0.235,-1.18 0.408,-0.498 0,0"
              transform="matrix(1.3333333,0,0,-1.3333333,92.550133,221.82427)"/>
        <path fill="currentColor" d="m 0,0 c -3.188,3.942 -6.157,8.085 -7.183,13.15 -0.124,0.614 -1.004,0.338 -0.919,-0.254 0.73,-5.093 3.598,-10.16 7.483,-13.515 C -0.186,-0.993 0.352,-0.436 0,0"
              transform="matrix(1.3333333,0,0,-1.3333333,115.59507,230.77987)"/>
        <path fill="currentColor" d="m 0,0 c -2.324,3.176 -3.73,6.491 -3.986,10.442 -0.033,0.51 -0.784,0.518 -0.797,0 C -4.888,6.25 -3.332,2.66 -0.699,-0.539 -0.379,-0.929 0.298,-0.407 0,0"
              transform="matrix(1.3333333,0,0,-1.3333333,103.25067,222.89333)"/>
        <path fill="currentColor" d="M 0,0 C -0.189,0.25 -0.595,0.036 -0.432,-0.252 2.609,-5.629 2.137,-12.956 1.767,-18.9 1.346,-25.667 0.125,-32.917 -2.985,-39.01 c -0.519,-1.017 0.954,-1.895 1.538,-0.898 3.385,5.779 4.196,13.175 4.751,19.723 C 3.847,-13.776 4.113,-5.419 0,0"
              transform="matrix(1.3333333,0,0,-1.3333333,246.13667,157.24733)"/>
        <path fill="currentColor" d="m 0,0 c -0.157,0.107 -0.354,-0.102 -0.257,-0.257 2.357,-3.779 0.088,-10.577 -0.927,-14.412 -1.314,-4.964 -3.954,-9.229 -5.619,-13.965 -0.268,-0.762 0.714,-1.134 1.228,-0.715 3.975,3.252 5.463,11.859 6.528,16.525 C 1.742,-9.372 3.573,-2.438 0,0"
              transform="matrix(1.3333333,0,0,-1.3333333,239.7532,182.0872)"/>
        <path fill="currentColor" d="m 0,0 c -0.639,0.304 -1.176,-0.578 -0.56,-0.958 10.658,-6.561 11.559,-17.603 12.801,-28.854 0.115,-1.037 1.529,-1.054 1.625,0 C 14.865,-18.826 10.501,-5.002 0,0"
              transform="matrix(1.3333333,0,0,-1.3333333,262.222,108.77667)"/>
        <path fill="currentColor" d="M 0,0 C -0.268,2.126 0.033,4.147 0.31,6.25 0.368,6.686 -0.34,6.863 -0.52,6.475 -2.259,2.721 -0.898,-2.084 0.23,-5.833 0.328,-6.158 0.885,-6.111 0.844,-5.75 0.622,-3.824 0.242,-1.924 0,0"
              transform="matrix(1.3333333,0,0,-1.3333333,71.807333,134.63667)"/>
        <path fill="currentColor" d="m 0,0 c -2.061,-3.082 -1.966,-8.33 -0.498,-11.653 0.107,-0.243 0.44,-0.058 0.4,0.169 -0.648,3.675 -0.678,7.592 0.813,11.066 C 0.922,0.064 0.303,0.454 0,0"
              transform="matrix(1.3333333,0,0,-1.3333333,89.817067,123.358)"/>
        <path fill="currentColor" d="m 0,0 c -2.388,3.388 -2.647,7.165 -1.133,10.971 0.259,0.65 -0.705,0.939 -1.057,0.445 C -4.604,8.026 -3.829,2.175 -0.65,-0.502 -0.314,-0.785 0.289,-0.409 0,0"
              transform="matrix(1.3333333,0,0,-1.3333333,111.2148,137.58067)"/>
        <path fill="currentColor" d="m 0,0 c -4.184,3.051 -7.918,6.13 -9.153,11.41 -0.165,0.706 -1.329,0.563 -1.274,-0.172 C -10.001,5.575 -5.949,0.811 -0.892,-1.525 0.149,-2.004 0.92,-0.671 0,0"
              transform="matrix(1.3333333,0,0,-1.3333333,134.44333,112.84307)"/>
        <path fill="currentColor" d="M 0,0 C -3.299,0.163 -6.917,-0.499 -9.718,1.673 -10.114,1.979 -10.642,1.495 -10.282,1.108 -7.563,-1.807 -3.651,-1.467 0,-1.219 0.781,-1.166 0.789,-0.039 0,0"
              transform="matrix(1.3333333,0,0,-1.3333333,142.73827,142.38013)"/>
        <path fill="currentColor" d="m 0,0 c -3.506,-1.537 -6.428,-2.96 -10.371,-2.806 -0.414,0.017 -0.5,-0.625 -0.097,-0.721 3.858,-0.919 7.915,0.133 11.06,2.515 C 1.195,-0.555 0.697,0.306 0,0"
              transform="matrix(1.3333333,0,0,-1.3333333,162.78773,152.2956)"/>
        <path fill="currentColor" d="m 0,0 c -2.455,-2.392 -5.505,-3.872 -8.947,-4.058 -0.42,-0.023 -0.426,-0.653 0,-0.657 3.754,-0.036 7.007,1.381 9.72,3.942 C 1.287,-0.289 0.505,0.493 0,0"
              transform="matrix(1.3333333,0,0,-1.3333333,184.88933,164.89987)"/>
    </g>
</svg>