<?xml version="1.0" encoding="UTF-8" standalone="no"?>
<!-- Created with Inkscape (http://www.inkscape.org/) -->

<svg
        version="1.1"
        id="svg1"
        width="329.29468"
        height="329.29468"
        viewBox="0 0 329.29468 329.29468"
        xmlns:xlink="http://www.w3.org/1999/xlink"
        xmlns="http://www.w3.org/2000/svg"
        xmlns:svg="http://www.w3.org/2000/svg">

    <path d="m 0,0 c 7.338,7.734 19.345,7.734 26.683,0 7.338,-7.734 21.705,-11.584 31.927,-8.555 10.222,3.029 20.621,-2.975 23.109,-13.341 2.487,-10.367 13.005,-20.885 23.372,-23.372 10.367,-2.488 16.37,-12.887 13.341,-23.109 -3.029,-10.222 0.821,-24.589 8.555,-31.927 7.734,-7.338 7.734,-19.345 0,-26.683 -7.734,-7.338 -11.584,-21.705 -8.555,-31.927 3.029,-10.222 -2.974,-20.621 -13.341,-23.108 -10.367,-2.488 -20.885,-13.006 -23.372,-23.372 -2.488,-10.367 -12.887,-16.371 -23.109,-13.342 -10.222,3.029 -24.589,-0.821 -31.927,-8.555 -7.338,-7.734 -19.345,-7.734 -26.683,0 -7.338,7.734 -21.705,11.584 -31.927,8.555 -10.222,-3.029 -20.62,2.975 -23.108,13.342 -2.488,10.366 -13.006,20.884 -23.372,23.372 -10.367,2.487 -16.371,12.886 -13.342,23.108 3.029,10.222 -0.821,24.589 -8.555,31.927 -7.734,7.338 -7.734,19.345 0,26.683 7.734,7.338 11.584,21.705 8.555,31.927 -3.029,10.222 2.975,20.621 13.342,23.109 10.366,2.487 20.884,13.005 23.372,23.372 2.488,10.366 12.886,16.37 23.108,13.341 C -21.705,-11.584 -7.338,-7.734 0,0"
            fill="currentColor"
            transform="matrix(1.3333333,0,0,-1.3333333,146.8588,13.119733)"
    />
    <path d="m 0,0 c 7.525,7.931 19.838,7.931 27.362,0 7.525,-7.931 22.258,-11.878 32.74,-8.772 10.482,3.106 21.145,-3.051 23.696,-13.682 2.551,-10.63 13.336,-21.415 23.967,-23.967 10.631,-2.551 16.787,-13.214 13.681,-23.696 -3.106,-10.482 0.842,-25.215 8.773,-32.739 7.931,-7.525 7.931,-19.838 0,-27.363 -7.931,-7.524 -11.879,-22.257 -8.773,-32.739 3.106,-10.482 -3.05,-21.146 -13.681,-23.697 -10.631,-2.551 -21.416,-13.336 -23.967,-23.967 -2.551,-10.63 -13.214,-16.787 -23.696,-13.681 -10.482,3.106 -25.215,-0.841 -32.74,-8.772 -7.524,-7.931 -19.837,-7.931 -27.362,0 -7.525,7.931 -22.257,11.878 -32.739,8.772 -10.482,-3.106 -21.146,3.051 -23.697,13.681 -2.551,10.631 -13.336,21.416 -23.967,23.967 -10.63,2.551 -16.787,13.215 -13.681,23.697 3.106,10.482 -0.842,25.215 -8.772,32.739 -7.931,7.525 -7.931,19.838 0,27.363 7.93,7.524 11.878,22.257 8.772,32.739 -3.106,10.482 3.051,21.145 13.681,23.696 10.631,2.552 21.416,13.337 23.967,23.967 2.551,10.631 13.215,16.788 23.697,13.682 C -22.257,-11.878 -7.525,-7.931 0,0 Z"
            fill="none" stroke="currentColor"
            transform="matrix(1.3333333,0,0,-1.3333333,146.406,9.2636)"
    />
</svg>