<svg xmlns="http://www.w3.org/2000/svg" width="500.081" height="267.138" viewBox="0 0 2179 1164">
  <path fill="currentColor" d="M1724.83,0q1.9,17.224,3.83,34.451c11.91,59.672,8.77,96.262-43.38,117.389l-2.55-1.276C1657.11,75.437,1692.83,52.072,1724.83,0Zm-84.2,90.594c8.57,16.246,34.25,69.249,29.34,91.869-3.34,15.362-13.53,26.306-20.41,38.279l-2.55-1.276C1625.28,159.29,1613.72,157.838,1640.63,90.594ZM2179,119.941q-3.2,23.6-6.38,47.211-1.9,27.43-3.83,54.866c-8.74,36.3-43.85,67.351-86.75,68.9v-2.552C2042.56,211.831,2152.18,154.717,2179,119.941Zm-423.55,6.38c2.58,7.5-1.82,19.794-3.83,26.8-13.47,47.02-42.82,59.877-89.3,74.006C1668.51,161.808,1725.54,165.535,1755.45,126.321Zm-151.82,31.9q3.195,15.948,6.38,31.9c11.75,36.82,33.54,61.355,6.38,100.8-5.21,7.572-9.25,16.295-17.86,20.416C1576.61,245.187,1563.9,220.087,1603.63,158.22Zm443.97,45.935c4.32,5.484.46,28.814,2.55,39.555,11.49,58.993,13.24,89.341-33.17,118.664C2000.61,276.308,2003.49,262.057,2047.6,204.155Zm-310.01,8.931c3.36,10.038-4.33,25.156-7.66,33.175-20.69,49.816-54.39,64.616-114.82,75.282C1628.7,244.153,1701.48,259.991,1737.59,213.086Zm-176.06,34.451q2.55,19.776,5.1,39.555c14.52,54.19,17.57,80.836-25.51,112.285C1521.64,328.691,1523.39,299.216,1561.53,247.537Zm421,25.52q-1.275,22.965-2.55,45.935c11.25,75.322,5.01,107.937-51.03,137.8C1912.29,352.591,1929.81,329.829,1982.53,273.057Zm192.64,10.207c1.94,8.631-6.42,19.507-10.2,26.8-23.67,45.589-61.43,65.052-132.68,63.8v-1.276C2070.92,293.131,2122.66,329.221,2175.17,283.264ZM1689.11,316.44c1.82,7.3-3.72,15.345-6.38,21.691-20.25,48.261-57.63,72.742-127.58,71.454,12.23-25.229,25.98-47.717,52.31-58.694C1636.78,338.668,1669.45,337.665,1689.11,316.44ZM1510.5,330.475V361.1c7.35,44.457,13.74,78.733-17.86,103.354-6.39,4.98-11.65,12.345-19.14,12.759C1463.03,388.6,1467.64,385.883,1510.5,330.475ZM1904.71,366.2q-3.825,19.139-7.65,38.279,0.63,33.173,1.27,66.35c-6.57,36.449-33.92,61.314-66.34,71.455v-2.552q-0.63-20.413-1.27-40.831C1830.81,418.486,1866.18,405.448,1904.71,366.2Zm223.26,14.036c0.98,10.381-10.83,24.649-16.59,33.175-37.36,55.359-76.93,64.017-165.84,59.97l2.55-5.1c16.2-38.532,58.56-64.87,103.33-75.282C2079.5,386.468,2111.12,396.749,2127.97,380.238Zm-676.15,26.8q-1.275,19.138-2.56,38.279c0.04,58.529-4.02,90.171-49.75,104.629C1392.63,462.589,1410.04,450.863,1451.82,407.033Zm177.33,6.38c6.88,5.253-16.01,34.282-20.42,39.555-27.65,33.115-60.58,40.137-121.19,38.279,0.42-1.276.85-2.552,1.27-3.828,14.53-17.82,24.31-36.417,47.21-45.935C1565.9,429.063,1608.34,434.437,1629.15,413.413Zm186.26,38.279c3.02,3.917-9.38,35.617-11.48,47.211q-1.92,26.792-3.83,53.59c-8.5,35.192-39.25,56.448-74,65.075C1725.04,514.456,1757.65,495.086,1815.41,451.692ZM1384.2,477.211q-3.2,14.673-6.38,29.348c-11.79,66.156,3.35,88.1-59.96,107.181C1316.49,528.088,1338.98,514.758,1384.2,477.211Zm651.91,12.76c4.63,3.023-26.52,41.989-33.17,47.211-32.24,25.35-104.11,51.326-156.91,22.967l2.55-2.552c17.86-36.659,63.18-56.337,110.99-63.8C1988.32,489.313,2015.52,505.476,2036.11,489.971Zm-475.85,12.76c4.03,6.216-11.65,21.735-16.59,28.071-27.08,34.752-75.27,46.5-132.68,33.175,13.58-19.4,31.3-37.978,57.41-44.659C1500.27,511.163,1538.09,519.295,1560.26,502.731ZM1718.45,525.7h3.83c-19.17,38.626-21.41,111.115-56.14,135.252-8.3,5.77-49.22,27.124-52.3,11.484,15.14-53.593,21.23-95.208,59.96-123.769Q1696.12,537.183,1718.45,525.7Zm-409.52,14.036c2.36,3.428-3.63,11.782-5.1,19.139q0.63,14.034,1.27,28.071c3.4,26.11-6.98,41.761-15.31,56.143,44.93-3.127,66.43,17.822,107.17,14.035V658.4q-8.925,9.57-17.86,19.14-14.67,8.931-29.34,17.863c-40.44,16.746-78.61-1.508-111-11.483L1137.98,727.3C1071.06,753.37,996.014,769.836,916,780.891v1.276c45.482,6.945,93.424,13.978,142.884,21.692l63.79-2.552c54.32-8.459,105.11-6.6,153.09-16.588,20.54-4.276,89.93-10.991,98.23-22.967,40.5-66.186,37.82-109.657,136.51-122.493-16.19,24.166-20.52,52.326-33.17,82.938-6.22,15.047-17.53,24.089-26.79,35.727,40.68,3.181,59.41,27.813,89.3,40.831l38.28,8.931c-0.85.426-1.7,0.851-2.56,1.276-10.01,10.6-25.75,16.17-40.82,21.692-70.83,25.958-115.28-9.944-156.92-39.555-123.52,16.657-265.24,58.857-412.069,31.9-58.4-10.723-114.057-18.5-167.125-34.451C682.017,753.5,576.406,712.138,449.068,686.47c-39.755-8.014-96.657-10.956-139.058-3.828-37.908,6.372-70.8,5.4-103.337,15.311C99.867,730.491,27.528,801.031,1.276,913.592H0C13.24,771.429,106.2,696.842,227.085,660.95c31.163-9.251,62.427-8.149,98.234-14.035,41.158-6.766,91.591-5.236,131.4,2.552,114.429,22.382,210.16,55.2,311.286,90.593,23.184,8.113,113.5,42.143,137.782,38.279,76.172-12.117,148.55-35.173,211.78-61.246,32.42-13.371,91.28-30.985,113.54-53.591C1233.63,586.326,1262.33,572.067,1308.93,539.734Zm535.82,43.382c36.2,0.319,60.54,13.237,91.86,5.1-48.45,71.568-107.3,76.919-199.02,48.487,15.6-19.248,42.95-39.053,68.89-47.211Zm-364.87,1.276h3.83l-2.55,3.828c-17.38,40.519-102.58,75.467-153.09,39.555,12.72-16.66,33.19-32.213,57.41-37C1416.72,584.594,1454.87,599.112,1479.88,584.392Zm135.23,3.828h3.83c-0.42,1.276-.85,2.552-1.27,3.828-57.38,55.245-.43,123.268-123.75,139.081,17.75-54.242,30.85-98.238,75.27-125.045Q1592.14,597.153,1615.11,588.22Zm90.58,71.454,52.31,2.552c21.75,5.481,39.7,17.681,67.61,11.484-34.66,47.073-102.82,68.993-170.95,40.831-11.3-4.671-23.96-7.336-31.89-15.312h2.55C1645.72,675.649,1674.61,673.739,1705.69,659.674Zm-130.13,61.247c61.77-.655,77.68,26.41,128.86,26.795-40.69,53.377-156.28,52.458-201.57,3.828C1521.89,732.915,1548.92,733.044,1575.56,720.921Zm442.69,7.656h2.56c-17.84,47.386-45.73,117.577-121.2,99.525v-6.38C1926.74,733.97,1959.67,770.113,2018.25,728.577ZM318.94,731.129C545.984,726.863,693.719,808.5,875.172,854.9c89.368,22.85,253.2,45.338,364.868,26.8,51.35-8.526,104.27-16.57,153.09-21.692v1.276Q1330,876.588,1266.83,891.9c-92.87,20.472-227.23,25.223-325.318,6.38v1.276l2.551,1.276,61.237,24.243c64.74,25.224,145.75,50.929,227.09,54.867,28.19-38.32,71.49-69.726,137.78-54.867v1.276c-26.89,8.912-30.12,40.322-49.76,56.143q-14.025,7.654-28.06,15.311h2.55c21.62,16.705,31.96,30.545,48.48,52.315,7.65,10.08,19.96,13.34,29.34,21.69-84.84,10-112.03-15.27-145.44-71.45-81.72-4.561-191.42-49.4-256.426-77.837L916,894.452l-42.1-6.38L761.629,861.277c-84.562-25.205-166.11-52.339-255.152-74.006-43.008-10.465-87.8-12.027-135.231-19.139L294.7,770.683C190.219,787.521,132.407,816.647,88.028,891.9c-27.15,46.039-37.976,119.08-7.654,172.26,24.8,43.49,64.283,76.93,118.646,90.59,21.306,5.35,59.565-.27,80.373,7.66-35.277,1.62-74.467,4.08-104.613-5.11C98.687,1134.12,7.945,1041.55,42.1,928.9c7.124-23.5,17.294-47.964,29.343-67.626,35.854-58.509,90.328-95.757,163.3-117.389ZM1898.33,752.82c2.49,1.965-7.01,27.468-8.93,35.727-9.57,41.322-15.72,67.585-58.68,74.006v-8.932C1849.9,781.908,1847.27,791.118,1898.33,752.82ZM1828.17,786h2.55c-22.85,61.036-20.21,107.751-93.13,122.493v-5.1C1761.51,823.022,1762.87,824.445,1828.17,786Zm-88.03,48.487h5.1c-34.06,51.489-23.2,104.356-105.89,111.009v-1.276C1664.37,869.83,1672.86,866.085,1740.14,834.482Zm144.16,12.759c32.03,0.1,59.5,5.528,89.3,1.276-23.97,32.933-89.55,59.911-135.23,26.8C1850.31,860.067,1866.06,856.714,1884.3,847.241Zm-239.84,25.52h10.2c-31.85,44.587-36.25,99.389-116.09,98.249,14.97-37.264,34.08-70.724,68.89-88.042Q1625.955,877.865,1644.46,872.761Zm159.47,25.519c37.73,1.089,65.09,15.324,104.61,10.208-44.28,60.055-104.74,40.854-164.57,16.587l2.55-1.276C1761.17,906.958,1780.96,907.875,1803.93,898.28Zm-253.88,1.276,11.48,1.276-2.55,3.828c-53.37,26.853-14.94,87.414-122.47,81.662v-1.276c15.92-32.678,39.12-64.169,73.99-77.834ZM1431.4,916.144l35.73,1.276c-0.43.85-.86,1.7-1.28,2.551-60.36,27.86-25.69,82.8-132.68,70.179,7.28-24.308,40.03-53.911,62.51-63.8Q1413.545,921.248,1431.4,916.144Zm260.26,26.795c48.4-.509,66.97,21.291,117.37,21.691-0.43.851-.85,1.7-1.28,2.552q-17.85,10.845-35.72,21.692c-45.15,18.616-102.53-.7-126.3-26.8C1657.63,950.624,1675.22,950.429,1691.66,942.939Zm-107.16,31.9c45.07-.567,73.76,25.292,119.92,34.452v1.28h-2.55c-46.64,40.94-130.73,15.8-159.47-22.972Q1563.445,981.219,1584.5,974.838Zm-117.37,20.415c63.06-.913,75.21,39.427,128.85,45.937-0.43.85-.85,1.7-1.28,2.55q-22.32,7.02-44.65,14.04c-52.99,9.11-93.56-27.56-112.27-54.87h2.55Q1453.725,999.085,1467.13,995.253Zm-116.1,7.657c71.79-1.04,78.98,47.55,135.23,58.69v1.28c-79.28,17.03-118.73.31-154.37-56.14Q1341.46,1004.82,1351.03,1002.91Z"/>
</svg>