<svg width="232.46402mm"
     height="72.686806mm"
     viewBox="0 0 232.46402 72.686806"
     version="1.1"
     xmlns="http://www.w3.org/2000/svg">
    <g transform="translate(-2.6748194,-55.240266)">
        <path fill="currentColor"
              d="m 30.938724,56.820124 q -0.115969,1.043595 -0.231877,2.087371 c -0.721925,3.615502 -0.531431,5.832475 2.628134,7.112551 l 0.154564,-0.07731 c 1.552184,-4.551914 -0.612076,-5.967589 -2.550821,-9.12261 z m 5.101642,5.489052 c -0.51901,0.984339 -2.075556,4.195768 -1.777819,5.566305 0.202187,0.930777 0.819959,1.59387 1.236754,2.319309 l 0.154565,-0.07731 c 1.316429,-3.646039 2.016724,-3.734015 0.3865,-7.808301 z m -32.6196737,1.778123 0.3865,2.860495 0.231877,3.324308 c 0.529856,2.199402 2.657277,4.080769 5.256267,4.174622 V 74.2921 C 11.687777,69.654876 5.0454623,66.194362 3.4206923,64.087299 Z M 29.083592,64.47386 c -0.156261,0.454422 0.110333,1.199311 0.231876,1.623801 0.816323,2.848923 2.594385,3.627923 5.41065,4.483993 -0.374444,-3.957651 -3.830292,-3.731833 -5.642526,-6.107794 z m 9.198407,1.932808 q -0.19322,0.966283 -0.386501,1.932808 c -0.711988,2.230909 -2.032295,3.717474 -0.38644,6.10743 0.315914,0.458784 0.560454,0.987307 1.08213,1.236997 1.327942,-4.008001 2.098157,-5.528799 -0.309189,-9.277295 z M 11.382163,69.18979 c -0.26205,0.332274 -0.02775,1.745829 -0.154564,2.396621 -0.69678,3.574362 -0.802328,5.413134 2.009756,7.189803 0.992095,-5.214703 0.817172,-6.078166 -1.855192,-9.586424 z m 18.783377,0.541126 c -0.203581,0.608198 0.261929,1.524191 0.463813,2.010059 1.254205,3.018331 3.295649,3.915057 6.956775,4.561305 -0.822988,-4.689028 -5.232577,-3.72941 -7.420406,-6.571364 z m 10.667099,2.087372 q -0.154503,1.198219 -0.309007,2.396621 c -0.879579,3.283349 -1.064014,4.897819 1.546004,6.803301 1.180103,-4.282835 1.074435,-6.068713 -1.236815,-9.199922 z m -25.508215,1.546246 q 0.07731,1.39144 0.154625,2.783182 c -0.681754,4.563729 -0.302948,6.539858 3.091886,8.349245 1.009484,-6.313495 -0.05186,-7.692635 -3.246389,-11.132427 z M 3.6525683,73.982972 c -0.117059,0.522948 0.389106,1.181921 0.618377,1.623801 1.434156,2.762218 3.721715,3.941473 8.0390257,3.865615 v -0.07731 C 9.9692743,74.580809 6.8343093,76.767487 3.6525683,73.982972 Z m 29.4504757,2.01012 c -0.110515,0.442304 0.225212,0.929747 0.386501,1.314248 1.226757,2.924114 3.491535,4.407408 7.729777,4.329368 -0.740647,-1.528614 -1.573694,-2.891153 -3.169199,-3.556245 -1.776487,-0.740586 -3.755827,-0.801357 -4.947079,-2.087371 z m 10.821784,0.850374 v 1.855556 c -0.445151,2.693632 -0.832319,4.7704 1.08213,6.262176 0.387289,0.301736 0.705869,0.747979 1.159503,0.773063 0.634555,-5.369025 0.354995,-5.533647 -2.241633,-8.890795 z m -23.88508,2.164563 q 0.231877,1.159624 0.463753,2.319309 -0.03866,2.009938 -0.07731,4.020119 c 0.398376,2.20843 2.055198,3.71499 4.019512,4.329429 v -0.154625 q 0.0386,-1.236815 0.07731,-2.473933 c -0.0057,-4.872312 -2.14887,-5.662279 -4.483266,-8.040299 z M 6.5125783,79.858586 c -0.05962,0.62898 0.656246,1.493473 1.004878,2.010059 2.263688,3.354179 4.6616417,3.878764 10.0487217,3.633558 L 17.411614,85.193196 C 16.430063,82.858558 13.863125,81.26275 11.150468,80.631891 9.4493553,80.236059 7.5335123,80.858981 6.5125783,79.858586 Z m 40.9678887,1.623801 q 0.07725,1.159563 0.154564,2.319308 c -0.0023,3.546248 0.243752,5.463424 3.014635,6.339428 0.416978,-5.292924 -0.637826,-6.003398 -3.169199,-8.659039 z m -10.744411,0.386561 c -0.417038,0.318277 0.969979,2.077132 1.236755,2.396621 1.675605,2.006424 3.67088,2.431884 7.343457,2.319309 q -0.03872,-0.115969 -0.07731,-0.231937 C 44.359076,85.273235 43.766328,84.14645 42.379129,83.569758 40.568167,82.816872 37.996806,83.142481 36.736058,81.868645 Z M 25.45058,84.187954 c -0.183041,0.237329 0.568391,2.158019 0.695689,2.860495 q 0.115848,1.623316 0.231877,3.246996 c 0.515011,2.132268 2.377777,3.42016 4.483265,3.942867 0.06447,-6.247513 -1.911419,-7.421134 -5.410831,-10.050358 z m 26.126713,1.546186 0.386501,1.778183 c 0.714654,4.008364 -0.202854,5.337942 3.633012,6.494052 0.08319,-5.189619 -1.279713,-5.997278 -4.019513,-8.272235 z m -39.499198,0.773123 c -0.279924,0.183162 1.607321,2.544096 2.009757,2.860494 1.953771,1.535946 6.308042,3.109821 9.507656,1.391561 l -0.154624,-0.154624 c -1.082191,-2.221154 -3.827929,-3.413436 -6.724899,-3.865616 -1.74189,-0.271683 -3.389927,0.707626 -4.637951,-0.231815 z m 28.832099,0.773123 c -0.244419,0.376625 0.705686,1.316914 1.004878,1.70081 1.640948,2.105609 4.560638,2.817416 8.038965,2.010059 -0.822564,-1.175438 -1.896454,-2.301071 -3.478387,-2.70587 -1.931233,-0.494108 -4.222246,-0.0014 -5.565517,-1.004999 z m -9.584969,1.391682 h -0.231937 c 1.161138,2.340333 1.297223,6.732411 3.401135,8.194862 0.502894,0.349602 2.98222,1.643432 3.169199,0.695811 -0.917145,-3.247178 -1.286499,-5.768613 -3.633012,-7.499112 z m 24.812585,0.850435 c -0.142688,0.207701 0.220183,0.713867 0.309007,1.159624 q -0.03866,0.850314 -0.07731,1.70081 c -0.20552,1.581994 0.4234,2.530282 0.927626,3.401681 -2.722048,-0.189463 -4.024784,1.079828 -6.493022,0.850375 v 0.07731 l 1.08213,1.159684 1.778062,1.08213 c 2.449879,1.014633 4.762705,-0.09137 6.724898,-0.69575 q 3.052988,1.314067 6.106462,2.628563 c 4.05465,1.57951 8.6019,2.57717 13.44967,3.24699 v 0.0773 c -2.75561,0.4208 -5.66027,0.84692 -8.65704,1.31431 l -3.86501,-0.15462 c -3.291221,-0.51253 -6.368384,-0.3999 -9.275715,-1.00506 -1.24451,-0.25909 -5.448821,-0.66594 -5.951957,-1.39156 -2.453454,-4.010127 -2.291437,-6.643714 -8.270781,-7.421745 0.980764,1.464208 1.24348,3.170411 2.009757,5.025175 0.376625,0.9117 1.062317,1.45955 1.623255,2.16469 -2.464602,0.19273 -3.599566,1.68518 -5.410649,2.47393 l -2.318946,0.54113 0.154625,0.0773 c 0.606684,0.64225 1.560606,0.97973 2.473509,1.31431 4.291439,1.57278 6.984828,-0.60251 9.507657,-2.39662 7.483844,1.00924 16.070595,3.56612 24.966965,1.93286 3.53843,-0.6497 6.91085,-1.1209 10.12573,-2.08737 7.06535,-2.12372 13.464217,-4.629587 21.179697,-6.184801 2.40904,-0.485565 5.85659,-0.663819 8.42558,-0.231937 2.29696,0.386077 4.28975,0.327184 6.26133,0.927688 6.47097,1.97146 10.85402,6.24545 12.4445,13.06548 h 0.0776 c -0.8022,-8.6136 -6.43401,-13.132796 -13.75929,-15.307477 -1.88797,-0.560514 -3.782,-0.493744 -5.95171,-0.850375 -2.49387,-0.409949 -5.5494,-0.317247 -7.96147,0.154625 -6.93327,1.356116 -12.733507,3.344545 -18.860927,5.488997 -1.40447,0.49156 -6.87692,2.55342 -8.34804,2.3193 -4.6151,-0.73416 -9.00058,-2.13111 -12.83166,-3.71087 -1.96431,-0.810139 -5.530797,-1.877364 -6.879278,-3.247052 -0.152565,-4.676183 -1.89191,-5.54013 -4.715203,-7.499173 z M 23.6727,92.151001 c -2.193343,0.01933 -3.667973,0.802024 -5.565396,0.309006 2.935384,4.336276 6.501262,4.660491 12.058418,2.937808 -0.945198,-1.166229 -2.602565,-2.366205 -4.174077,-2.860495 z m 22.1072,0.07731 h -0.231877 l 0.154564,0.231937 c 1.053168,2.455029 6.215522,4.572514 9.275781,2.396621 -0.771063,-1.009423 -2.011029,-1.951773 -3.478448,-2.241815 -1.892819,-0.374625 -4.204251,0.505014 -5.72002,-0.386864 z m -8.19359,0.231816 h -0.231877 l 0.07731,0.231937 c 3.476569,3.347271 0.02581,7.468756 7.4979,8.426856 -1.075586,-3.286497 -1.86931,-5.952196 -4.560578,-7.576421 z m -5.488144,4.329368 -3.169259,0.154624 c -1.317824,0.332092 -2.405407,1.071285 -4.096765,0.695811 2.100095,2.85213 6.230305,4.18026 10.35791,2.47393 0.684663,-0.283011 1.451727,-0.444482 1.932444,-0.927744 h -0.154564 c -1.236088,-1.428703 -2.986581,-1.544429 -4.869766,-2.396621 z m 7.884401,3.710935 c -3.742255,-0.0397 -4.706114,1.60017 -7.807089,1.62349 2.465148,3.23409 9.469001,3.17841 12.213042,0.23194 -1.153746,-1.12872 -2.791301,-1.12091 -4.405953,-1.85543 z M 13.160225,100.9643 H 13.0056 c 1.080495,2.8711 2.770762,7.12394 7.343458,6.03018 v -0.38656 c -1.643795,-5.31686 -3.639434,-3.12697 -7.188833,-5.64362 z m 102.960725,0.15463 c -13.75626,-0.25848 -22.707767,4.68799 -33.701747,7.49905 -5.41489,1.38447 -15.34128,2.74701 -22.107316,1.6238 -3.111154,-0.51659 -6.317615,-1.00397 -9.27572,-1.31431 v 0.0773 l 7.652464,1.85543 c 5.627016,1.24039 13.767832,1.52825 19.711062,0.38656 v 0.0773 l -0.1545,0.0773 -3.71051,1.46888 c -3.92257,1.52813 -8.83093,3.08528 -13.758983,3.32412 -1.70802,-2.32179 -4.33167,-4.22467 -8.348154,-3.32436 v 0.0773 c 1.62883,0.53997 1.824777,2.44309 3.014574,3.40168 l 1.700568,0.92768 h -0.154746 c -1.309825,1.01215 -1.936321,1.85071 -2.937261,3.16975 -0.463511,0.61074 -1.209793,0.80826 -1.77788,1.31419 5.140177,0.60589 6.787729,-0.92521 8.811967,-4.32913 4.951505,-0.27635 11.598175,-2.99313 15.537105,-4.71611 l 3.32346,-1.70081 q 1.27602,-0.19322 2.55082,-0.38656 l 6.8024,-1.6235 c 5.12345,-1.52716 10.06453,-3.1712 15.459427,-4.48399 2.60596,-0.63407 5.31976,-0.72871 8.19353,-1.15963 l 4.63813,0.15457 c 6.3304,1.0202 9.83308,2.78494 12.52205,7.34448 1.64501,2.78949 2.30119,7.21501 0.46412,10.43717 -1.50262,2.63504 -3.89531,4.66115 -7.18896,5.4888 -1.29116,0.32416 -3.60871,-0.0164 -4.86958,0.46412 2.1376,0.0982 4.5121,0.24721 6.33827,-0.30961 4.61027,-1.40447 10.10816,-7.01325 8.03903,-13.83866 -0.4314,-1.42386 -1.04759,-2.90612 -1.7777,-4.09743 -2.17274,-3.54504 -5.47306,-5.80188 -9.89428,-7.11255 q -2.55021,-0.38638 -5.10164,-0.77288 z m -95.694761,1.31424 c -0.150808,0.11906 0.425157,1.66428 0.541125,2.16469 0.579964,2.50368 0.952832,4.09495 3.5557,4.48399 v -0.54118 c -1.16229,-4.34507 -1.002758,-3.78704 -4.096825,-6.1075 z m 4.251389,2.01037 h -0.154564 c 1.384229,3.69814 1.224576,6.52859 5.642708,7.4218 v -0.30901 c -1.449546,-4.86965 -1.532008,-4.78343 -5.488144,-7.11279 z m 5.33358,2.9378 h -0.309007 c 2.063681,3.1197 1.405678,6.32289 6.41571,6.72599 v -0.0773 c -1.516194,-4.50726 -2.030357,-4.73416 -6.106703,-6.64898 z m -8.734716,0.77276 c -1.940563,0.006 -3.60508,0.33494 -5.41065,0.0773 1.452696,1.9954 5.426222,3.62999 8.19353,1.6238 -0.723198,-0.92399 -1.677605,-1.12714 -2.78288,-1.70111 z m 14.531988,1.54625 h -0.618317 c 1.93002,2.70151 2.196312,6.02194 7.034087,5.95287 -0.90739,-2.25781 -2.064772,-4.28514 -4.174077,-5.33443 z m -9.662161,1.54619 c -2.286226,0.066 -3.943776,0.92847 -6.338458,0.61849 2.682907,3.63871 6.345911,2.47533 9.97147,1.005 l -0.154624,-0.0773 c -0.887941,-1.02039 -2.087009,-0.96482 -3.478388,-1.54618 z m 15.382241,0.0773 -0.695689,0.0773 0.154624,0.23193 c 3.233727,1.62701 0.904966,5.29638 7.420588,4.94787 v -0.0773 c -0.964828,-1.97995 -2.370749,-3.88797 -4.483265,-4.71593 z m 7.188954,1.00506 -2.16432,0.0773 0.07725,0.15456 c 3.65749,1.68803 1.556485,5.01682 8.039025,4.25212 -0.44091,-1.47282 -2.425279,-3.26645 -3.787636,-3.86562 z m -15.768984,1.6235 c -2.932536,-0.0308 -4.057624,1.29002 -7.111399,1.31425 l 0.07725,0.15463 2.164381,1.31431 c 2.735863,1.12793 6.212311,-0.0424 7.652465,-1.6238 -0.720895,-0.69376 -1.786605,-0.70557 -2.782697,-1.15939 z m 6.493022,1.93281 c -2.731197,-0.0344 -4.469088,1.53243 -7.266024,2.08743 v 0.0776 h 0.154625 c 2.825777,2.48054 7.920694,0.95732 9.662221,-1.39186 z m 7.111399,1.23694 c -3.821142,-0.0553 -4.557487,2.38886 -7.807088,2.7833 q 0.03859,0.0772 0.07731,0.1545 l 2.705385,0.85068 c 3.210703,0.55197 5.668641,-1.66985 6.802211,-3.32455 h -0.154564 q -0.811597,-0.23181 -1.623256,-0.46399 z m 7.034088,0.46393 c -4.349363,-0.063 -4.785487,2.88104 -8.19359,3.556 v 0.0776 c 4.803724,1.03184 7.193801,0.0188 9.353032,-3.40149 q -0.579661,-0.1164 -1.159442,-0.23212 z"/>
        <path fill="currentColor"
              d="m 206.81385,56.743883 q 0.11538,1.045874 0.23257,2.09193 c 0.7232,3.623398 0.53253,5.845212 -2.63412,7.128084 l -0.15484,-0.07748 c -1.55569,-4.561855 0.61329,-5.980622 2.55639,-9.142534 z m -5.11278,5.50104 c 0.52039,0.986488 2.07972,4.204931 1.78158,5.578461 -0.20281,0.93281 -0.82157,1.59735 -1.23933,2.324374 l -0.15485,-0.07748 c -1.31948,-3.654003 -2.02143,-3.742171 -0.3874,-7.825355 z m 32.69085,1.782006 q -0.19431,1.433037 -0.3874,2.866742 -0.11538,1.665602 -0.23257,3.331568 c -0.53071,2.204205 -2.66266,4.089681 -5.26762,4.183739 v -0.154962 c -2.39731,-4.647351 4.25903,-8.115422 5.88759,-10.227087 z m -25.71876,0.387406 c 0.15666,0.455414 -0.11052,1.201929 -0.23257,1.627347 -0.81792,2.855144 -2.60011,3.635845 -5.42246,4.493785 0.37587,-3.966294 3.83884,-3.739983 5.65503,-6.121132 z m -9.2188,1.937028 q 0.194,0.968393 0.3874,1.937029 c 0.71348,2.235781 2.03661,3.725593 0.38741,6.120768 -0.31636,0.459787 -0.56168,0.989464 -1.0845,1.239699 -1.33102,-4.016754 -2.1028,-5.540874 0.30969,-9.297556 z m 26.9587,2.789261 c 0.26232,0.332999 0.0279,1.749641 0.15484,2.401855 0.6977,3.582168 0.80396,5.424956 -2.01414,7.205504 -0.99402,-5.226152 -0.81914,-6.0915 1.8593,-9.607419 z m -18.8244,0.542308 c 0.20403,0.609526 -0.26292,1.52752 -0.46512,2.014449 -1.25634,3.024922 -3.30267,3.923606 -6.9721,4.571266 0.82521,-4.699329 5.24456,-3.737615 7.43722,-6.585776 z m -10.6907,2.09193 q 0.15484,1.200836 0.30969,2.401855 c 0.88168,3.29052 1.06688,4.908516 -1.54902,6.818159 -1.18286,-4.292249 -1.0766,-6.082027 1.23933,-9.220075 z m 25.56393,1.549623 q -0.0774,1.394478 -0.15484,2.789261 c 0.68312,4.573695 0.30421,6.55414 -3.09864,8.367478 -1.01163,-6.327344 0.0522,-7.709496 3.25348,-11.1568 z m 11.69747,0.619788 c 0.1178,0.524091 -0.38984,1.184503 -0.61937,1.627347 -1.43728,2.768251 -3.73014,3.950082 -8.05658,3.874058 v -0.07748 c 2.34569,-4.824841 5.48744,-2.633388 8.67595,-5.423984 z m -29.51449,2.01445 c 0.11051,0.44327 -0.22589,0.931777 -0.38741,1.317118 -1.22962,2.9305 -3.4994,4.417033 -7.7469,4.338823 0.74263,-1.531952 1.57755,-2.897467 3.17636,-3.564011 1.78037,-0.742204 3.76415,-0.803108 4.95795,-2.09193 z m -10.84554,0.852232 v 1.859608 c 0.4463,2.699514 0.83431,4.780818 -1.0845,6.275852 -0.38801,0.302395 -0.70741,0.749612 -1.16222,0.77475 -0.63575,-5.38075 -0.35583,-5.545731 2.24672,-8.91021 z m 23.93718,2.16929 q -0.23226,1.162156 -0.46452,2.324373 0.0383,2.014328 0.0771,4.028899 c -0.39894,2.213253 -2.05968,3.723103 -4.02829,4.338884 v -0.154963 q -0.0382,-1.239516 -0.0771,-2.479336 c 0.005,-4.882952 2.15319,-5.674644 4.49281,-8.057857 z m 13.55677,0.852292 c 0.0595,0.630354 -0.65762,1.496735 -1.00737,2.014449 -2.26857,3.361504 -4.67134,3.887235 -10.07012,3.641493 l 0.15484,-0.309682 c 0.98369,-2.339736 3.55587,-3.93903 6.27439,-4.571266 1.70507,-0.396575 3.6251,0.227707 4.64826,-0.774872 z m -41.05712,1.627347 q -0.0774,1.162096 -0.15544,2.324374 c 0.002,3.553993 -0.24411,5.475355 -3.02092,6.353272 -0.41777,-5.304362 0.6394,-6.016387 3.17636,-8.677828 z m 10.76782,0.387406 c 0.41777,0.318972 -0.97216,2.081668 -1.23994,2.401855 -1.67896,2.010806 -3.67854,2.437195 -7.35889,2.324374 0.0255,-0.07748 0.0516,-0.154962 0.0771,-0.232444 0.88229,-1.082064 1.47615,-2.211309 2.86668,-2.78926 1.81437,-0.754409 4.39141,-0.42809 5.65503,-1.704707 z m 11.31006,2.324374 c 0.18338,0.237848 -0.56957,2.162732 -0.69708,2.866742 q -0.11659,1.626861 -0.23257,3.254087 c -0.51613,2.136925 -2.38333,3.42763 -4.49342,3.951478 -0.0644,-6.26134 1.91578,-7.437523 5.42307,-10.072489 z m -26.18389,1.54938 q -0.19431,0.890973 -0.38741,1.782066 c -0.71591,4.017119 0.20342,5.3496 -3.64088,6.508235 -0.0832,-5.200953 1.28244,-6.010376 4.02829,-8.290301 z m 39.58522,0.774812 c 0.28114,0.183562 -1.61035,2.549652 -2.01415,2.866741 -1.95767,1.539301 -6.32176,3.116613 -9.52787,1.3946 l 0.15484,-0.154962 c 1.08449,-2.226004 3.83641,-3.42089 6.73952,-3.874057 1.74576,-0.272277 3.39739,0.709171 4.64766,-0.232322 z m -28.89452,0.774811 c 0.24471,0.377447 -0.70741,1.319791 -1.00738,1.704525 -1.64435,2.110207 -4.57054,2.823568 -8.05658,2.014449 0.8246,-1.178005 1.90059,-2.306097 3.48604,-2.71178 1.93521,-0.495187 4.23171,-0.0014 5.57792,-1.007194 z m 9.6056,1.394721 h 0.23256 c -1.16404,2.345445 -1.30005,6.747115 -3.40893,8.21276 -0.50399,0.350365 -2.98873,1.647023 -3.17575,0.69733 0.91933,-3.254269 1.28912,-5.781211 3.64088,-7.51549 q 1.35532,-0.69733 2.71124,-1.3946 z m -24.86684,0.852293 c 0.1433,0.208155 -0.22042,0.715426 -0.30968,1.162157 q 0.0383,0.852171 0.0771,1.704524 c 0.20645,1.585449 -0.42384,2.535808 -0.92965,3.40911 2.72823,-0.189877 4.03375,1.082186 6.50756,0.852232 v 0.07748 q -0.54194,0.581109 -1.08449,1.162218 -0.89079,0.542309 -1.78158,1.084679 c -2.45559,1.01684 -4.77335,-0.0916 -6.74013,-0.697274 l -6.11956,2.634113 c -4.06351,1.58302 -8.62044,2.58287 -13.47904,3.25415 v 0.0775 c 2.76175,0.42171 5.67288,0.84877 8.67618,1.31718 l 3.87345,-0.15496 c 3.29842,-0.51365 6.38248,-0.40077 9.29592,-1.00726 1.24723,-0.25964 5.46072,-0.66739 5.96471,-1.3946 2.45924,-4.018939 2.29651,-6.658578 8.28915,-7.438005 -0.98309,1.467406 -1.24601,3.177336 -2.01414,5.036155 -0.37769,0.91368 -1.06446,1.46273 -1.62674,2.16941 2.47016,0.19316 3.60748,1.68886 5.42246,2.47933 l 2.32444,0.54231 c -0.0516,0.0259 -0.10323,0.0517 -0.15545,0.0775 -0.60783,0.64365 -1.56359,0.98188 -2.47867,1.31718 -4.30093,1.57622 -7.00002,-0.60382 -9.52848,-2.40185 -7.50037,1.01144 -16.10588,3.57391 -25.02162,1.93703 -3.54616,-0.65113 -6.92575,-1.12336 -10.14814,-2.09193 -7.08097,-2.12819 -13.49387,-4.639769 -21.22608,-6.198379 -2.41399,-0.48662 -5.86919,-0.665264 -8.44386,-0.232438 -2.30185,0.386918 -4.29911,0.327898 -6.27482,0.929708 -6.48547,1.975779 -10.87803,6.259099 -12.4721,13.094019 h -0.0775 c 0.80396,-8.63241 6.44867,-13.161469 13.78903,-15.340904 1.89228,-0.561738 3.79069,-0.494823 5.96496,-0.852232 2.49919,-0.410844 5.56158,-0.31794 7.97886,0.154962 6.94834,1.359078 12.76131,3.351845 18.90188,5.500974 1.40777,0.49264 6.89193,2.55901 8.36638,2.32438 4.62531,-0.73577 9.02024,-2.13577 12.85968,-3.71898 1.96861,-0.811909 5.5427,-1.881459 6.89437,-3.254142 0.1532,-4.686273 1.89592,-5.552107 4.72556,-7.515428 z m 32.53601,2.634238 c 2.19814,0.01937 3.67611,0.803776 5.57792,0.309682 -2.94198,4.345745 -6.51546,4.670668 -12.08488,2.944223 0.94727,-1.168776 2.60801,-2.371373 4.18314,-2.866742 z m -22.1556,0.07748 h 0.23257 l -0.15485,0.232443 c -1.05534,2.460391 -6.22885,4.5825 -9.29591,2.401855 0.77238,-1.011627 2.01536,-1.956034 3.48604,-2.24671 1.89695,-0.375444 4.2135,0.506117 5.73215,-0.387709 z m 8.21142,0.232443 h 0.23257 c -0.0255,0.07748 -0.0516,0.154963 -0.0771,0.232444 -3.48422,3.354582 -0.0261,7.485064 -7.51434,8.445264 1.07782,-3.293678 1.87327,-5.965199 4.57054,-7.592971 q 1.39357,-0.542429 2.78835,-1.084858 z m 5.5002,4.338823 3.17636,0.154963 c 1.3207,0.332816 2.41066,1.073624 4.10541,0.69733 -2.10462,2.858362 -6.24343,4.189382 -10.38041,2.479332 -0.68616,-0.283629 -1.4549,-0.445449 -1.93643,-0.929769 h 0.15484 c 1.23873,-1.431945 2.99299,-1.547923 4.88023,-2.401977 z m -7.90175,3.719035 c 3.75079,-0.0398 4.71688,1.60366 7.82463,1.62704 -2.47077,3.24116 -9.48962,3.18535 -12.23972,0.23245 1.15615,-1.13131 2.79746,-1.12348 4.41509,-1.85961 z m 26.88098,0.46489 h 0.15545 c -1.08328,2.87736 -2.77681,7.13949 -7.35949,6.04334 v -0.3874 c 1.64738,-5.32859 3.64696,-3.13392 7.20404,-5.65607 z m -103.18534,0.15484 c 13.78655,-0.25904 22.7573,4.69811 33.77547,7.51561 5.42659,1.38749 15.37478,2.75301 22.15548,1.62735 3.11807,-0.51772 6.33147,-1.00617 9.29592,-1.31718 v 0.0775 q -3.83338,0.92928 -7.66918,1.85906 c -5.63924,1.2431 -13.79784,1.53159 -19.75393,0.3874 v 0.0775 l 0.1549,0.0775 3.71843,1.47208 c 3.93113,1.53165 8.85022,3.09251 13.78934,3.33163 1.71175,-2.32686 4.34101,-4.23389 8.36626,-3.33163 v 0.0775 c -1.63281,0.54116 -1.82894,2.44843 -3.02152,3.40911 q -0.85163,0.46477 -1.70386,0.92972 h 0.15484 c 1.31281,1.01436 1.94067,1.85475 2.9438,3.17666 0.46452,0.61208 1.21201,0.81003 1.78158,1.31706 -5.15165,0.60722 -6.80267,-0.92722 -8.83139,-4.33858 -4.9622,-0.27695 -11.62339,-2.99966 -15.57068,-4.7264 l -3.33084,-1.70453 -2.55639,-0.3874 -6.81731,-1.62705 c -5.13476,-1.53049 -10.08651,-3.17812 -15.49331,-4.49378 -2.61153,-0.63546 -5.33139,-0.73031 -8.21149,-1.16216 l -4.64802,0.1549 c -6.34428,1.02244 -9.85474,2.79102 -12.54951,7.36053 -1.6486,2.79557 -2.30598,7.23076 -0.46477,10.45995 1.5059,2.6408 3.90339,4.67134 7.20441,5.5008 1.29374,0.32486 3.6169,-0.0164 4.8804,0.46513 -2.14208,0.0984 -4.52178,0.24775 -6.3523,-0.31029 -4.62051,-1.40753 -10.13054,-7.02856 -8.05658,-13.86888 0.43258,-1.42697 1.05012,-2.91247 1.78176,-4.10638 2.17713,-3.55278 5.48489,-5.81455 9.91589,-7.12808 z m 95.90357,1.31712 c 0.1512,0.11931 -0.42566,1.66791 -0.54224,2.16941 -0.58111,2.50915 -0.95455,4.10389 -3.56316,4.49378 v -0.54237 c 1.16464,-4.35455 1.00494,-3.7953 4.1054,-6.12082 z m -4.26024,2.01475 h 0.15484 c -1.3875,3.70622 -1.22719,6.54284 -5.65504,7.43801 v -0.30968 c 1.45247,-4.88028 1.53505,-4.79388 5.5002,-7.12833 z m -5.34535,2.94422 h 0.30968 c -2.06819,3.12651 -1.40875,6.3367 -6.42985,6.74068 v -0.0775 c 1.51927,-4.5171 2.0348,-4.74451 6.12017,-6.6635 z m 8.75367,0.77475 c 1.94492,0.006 3.61295,0.33567 5.42246,0.0775 -1.4555,1.99976 -5.43764,3.63791 -8.21142,1.62735 0.72502,-0.92631 1.68139,-1.12991 2.78896,-1.70513 z m -14.56355,1.54963 h 0.61937 c -1.934,2.7074 -2.20117,6.03509 -7.04921,5.96586 0.90901,-2.26274 2.0694,-4.29449 4.18313,-5.34608 q 1.12305,-0.31016 2.24671,-0.62009 z m 9.68333,1.54956 c 2.29103,0.0661 3.95238,0.9305 6.35211,0.61985 -2.68876,3.64665 -6.36001,2.48073 -9.993,1.00719 l 0.15484,-0.0775 c 0.88958,-1.02292 2.09126,-0.96724 3.48605,-1.54986 z m -15.41608,0.0775 0.69708,0.0775 -0.15484,0.23244 c -3.24073,1.63057 -0.90718,5.30795 -7.43661,4.95867 v -0.0775 c 0.96669,-1.98427 2.37544,-3.89646 4.49282,-4.72623 z m -7.20466,1.00695 2.1696,0.0775 c -0.0261,0.0516 -0.0522,0.10323 -0.0777,0.1549 -3.66518,1.69171 -1.55995,5.02777 -8.05659,4.2614 0.44206,-1.47603 2.4307,-3.27358 3.79573,-3.87405 q 1.0848,-0.30981 2.16899,-0.61973 z m 15.80349,1.62704 c 2.93894,-0.0309 4.06654,1.29283 7.12693,1.31712 -0.0261,0.0517 -0.0516,0.10323 -0.0777,0.15496 q -1.08388,0.65853 -2.16898,1.31718 c -2.7416,1.1304 -6.22582,-0.0425 -7.66918,-1.62734 0.72259,-0.69527 1.79069,-0.70711 2.78896,-1.16192 z m -6.50696,1.93703 c 2.73673,-0.0344 4.47885,1.53578 7.28177,2.09199 v 0.0777 h -0.15484 c -2.83207,2.48596 -7.93818,0.95941 -9.68333,-1.3949 q 1.2779,-0.38741 2.5564,-0.77487 z m -7.12693,1.23964 c 3.82912,-0.0554 4.56689,2.39408 7.82401,2.78938 -0.0261,0.0516 -0.0516,0.10323 -0.0777,0.15484 q -1.35531,0.42627 -2.71123,0.85254 c -3.21765,0.55317 -5.68114,-1.6735 -6.81725,-3.33181 h 0.15484 q 0.81337,-0.23233 1.62735,-0.46501 z m -7.04982,0.46495 c 4.35923,-0.0631 4.79582,2.88732 8.21143,3.56376 v 0.0777 c -4.81404,1.0341 -7.20952,0.0188 -9.37364,-3.40892 q 0.5811,-0.11665 1.16221,-0.23263 z"/>
    </g>
</svg>